<svg width="27" height="37" fill="none" xmlns="http://www.w3.org/2000/svg"><path d="M2.40453 36.2158H6.61197C7.70494 36.2117 8.65763 35.4799 8.93086 34.4345H17.5164C17.7897 35.4799 18.7424 36.2117 19.8353 36.2158H24.0428C25.3706 36.2158 26.447 35.1524 26.447 33.8407V29.7823C26.4639 28.6728 25.7244 27.6904 24.6438 27.3871V9.41201C25.7021 9.14209 26.4429 8.20097 26.447 7.12126V2.96491C26.447 1.65319 25.3706 0.589844 24.0428 0.589844H2.40453C1.0767 0.589844 0.000284614 1.65319 0.000284614 2.96491V7.12126C0.00438074 8.20097 0.74519 9.14209 1.80347 9.41201V27.3871C0.722946 27.6904 -0.0166416 28.6728 0.000284614 29.7823V33.8407C0.000284614 35.1524 1.0767 36.2158 2.40453 36.2158ZM4.06226 27.9624C3.76501 27.6871 3.40116 27.4919 3.00559 27.3954V9.41201C4.06388 9.14209 4.80468 8.20097 4.80878 7.12126V5.33997H21.6385V7.12126C21.6426 8.20097 22.3834 9.14209 23.4417 9.41201V27.3942C22.3769 27.6539 21.6313 28.6009 21.6385 29.6843V31.4656H19.8353C18.7424 31.4697 17.7897 32.2015 17.5164 33.2469H8.93086C8.65763 32.2015 7.70494 31.4697 6.61197 31.4656H4.80878V29.6843C4.81168 29.0331 4.54143 28.4097 4.06226 27.9624V27.9624ZM25.2449 29.7823V33.8407C25.2449 34.4966 24.7067 35.0282 24.0428 35.0282H19.8353C19.1714 35.0282 18.6332 34.4966 18.6332 33.8407C18.6332 33.1848 19.1714 32.6532 19.8353 32.6532H22.2396C22.5715 32.6532 22.8406 32.3873 22.8406 32.0594V29.6843C22.839 29.3585 22.9741 29.0465 23.2139 28.8228C23.4536 28.5983 23.776 28.4805 24.1059 28.4968C24.7676 28.5649 25.2642 29.1254 25.2449 29.7823V29.7823ZM1.20241 7.12126V2.96491C1.20241 2.30905 1.74062 1.77737 2.40453 1.77737H24.0428C24.7067 1.77737 25.2449 2.30905 25.2449 2.96491V7.12126C25.2449 7.77712 24.7067 8.30879 24.0428 8.30879C23.3788 8.30879 22.8406 7.77712 22.8406 7.12126V4.7462C22.8406 4.41827 22.5715 4.15244 22.2396 4.15244H4.20772C3.87576 4.15244 3.60666 4.41827 3.60666 4.7462V7.12126C3.60666 7.77712 3.06845 8.30879 2.40453 8.30879C1.74062 8.30879 1.20241 7.77712 1.20241 7.12126ZM1.20241 29.7823C1.18323 29.1244 1.68155 28.5635 2.34443 28.4968H2.40453C3.06845 28.4968 3.60666 29.0285 3.60666 29.6843V32.0594C3.60666 32.3873 3.87576 32.6532 4.20772 32.6532H6.61197C7.27588 32.6532 7.81409 33.1848 7.81409 33.8407C7.81409 34.4966 7.27588 35.0282 6.61197 35.0282H2.40453C1.74062 35.0282 1.20241 34.4966 1.20241 33.8407V29.7823Z" fill="white"/><path d="M7.21334 19.5901H19.2346C20.2304 19.5901 21.0378 18.7926 21.0378 17.8088V10.0899C21.0378 9.10611 20.2304 8.30859 19.2346 8.30859H7.21334C6.21747 8.30859 5.41016 9.10611 5.41016 10.0899V17.8088C5.41016 18.7926 6.21747 19.5901 7.21334 19.5901ZM6.61228 10.0899C6.61228 9.76196 6.88138 9.49612 7.21334 9.49612H19.2346C19.5665 9.49612 19.8356 9.76196 19.8356 10.0899V17.8088C19.8356 18.1368 19.5665 18.4026 19.2346 18.4026H7.21334C6.88138 18.4026 6.61228 18.1368 6.61228 17.8088V10.0899Z" fill="white"/><path d="M13.2236 22.5605C11.2318 22.5605 9.61719 24.1556 9.61719 26.1231C9.61719 28.0907 11.2318 29.6857 13.2236 29.6857C15.2153 29.6857 16.8299 28.0907 16.8299 26.1231C16.8279 24.1564 15.2145 22.5625 13.2236 22.5605ZM13.8246 28.4139V27.9044C13.8246 27.5765 13.5555 27.3107 13.2236 27.3107C12.8916 27.3107 12.6225 27.5765 12.6225 27.9044V28.4139C11.7814 28.1966 11.1246 27.5478 10.9047 26.7169H11.4204C11.7523 26.7169 12.0214 26.4511 12.0214 26.1231C12.0214 25.7952 11.7523 25.5294 11.4204 25.5294H10.9047C11.1246 24.6985 11.7814 24.0496 12.6225 23.8324V24.3418C12.6225 24.6698 12.8916 24.9356 13.2236 24.9356C13.5555 24.9356 13.8246 24.6698 13.8246 24.3418V23.8324C14.6657 24.0496 15.3225 24.6985 15.5424 25.5294H15.0267C14.6948 25.5294 14.4257 25.7952 14.4257 26.1231C14.4257 26.4511 14.6948 26.7169 15.0267 26.7169H15.5424C15.3225 27.5478 14.6657 28.1966 13.8246 28.4139Z" fill="white"/><path d="M7.21334 24.9337C8.20921 24.9337 9.01653 24.1362 9.01653 23.1524C9.01653 22.1686 8.20921 21.3711 7.21334 21.3711C6.21747 21.3711 5.41016 22.1686 5.41016 23.1524C5.41016 24.1362 6.21747 24.9337 7.21334 24.9337ZM7.21334 22.5586C7.5453 22.5586 7.8144 22.8245 7.8144 23.1524C7.8144 23.4803 7.5453 23.7462 7.21334 23.7462C6.88138 23.7462 6.61228 23.4803 6.61228 23.1524C6.61228 22.8245 6.88138 22.5586 7.21334 22.5586Z" fill="white"/><path d="M19.2338 21.3711C18.238 21.3711 17.4307 22.1686 17.4307 23.1524C17.4307 24.1362 18.238 24.9337 19.2338 24.9337C20.2297 24.9337 21.037 24.1362 21.037 23.1524C21.037 22.1686 20.2297 21.3711 19.2338 21.3711ZM19.2338 23.7462C18.9019 23.7462 18.6328 23.4803 18.6328 23.1524C18.6328 22.8245 18.9019 22.5586 19.2338 22.5586C19.5658 22.5586 19.8349 22.8245 19.8349 23.1524C19.8349 23.4803 19.5658 23.7462 19.2338 23.7462Z" fill="white"/></svg>