<svg width="24" height="19" fill="none" xmlns="http://www.w3.org/2000/svg"><path fill-rule="evenodd" clip-rule="evenodd" d="M6.23611 1H17H17.55C17.7985 1 18 1.20147 18 1.45V3H2C2 1.89543 2.89543 1 4 1H6.23611ZM19 1V3H23C23.5523 3 24 3.44772 24 4V18C24 18.5523 23.5523 19 23 19H1C0.447716 19 0 18.5523 0 18V4C0 3.44772 0.447715 3 1 3C1 1.34315 2.34315 0 4 0H18C18.5523 0 19 0.447715 19 1ZM18 4H19H22.55C22.7985 4 23 4.20147 23 4.45V17.55C23 17.7985 22.7985 18 22.55 18H1.45C1.20147 18 1 17.7985 1 17.55V4.45C1 4.20147 1.20147 4 1.45 4H18ZM19 12C19.5523 12 20 11.5523 20 11C20 10.4477 19.5523 10 19 10C18.4477 10 18 10.4477 18 11C18 11.5523 18.4477 12 19 12Z" fill="black"/></svg>