<svg width="12" height="12" fill="none" xmlns="http://www.w3.org/2000/svg"><path fill-rule="evenodd" clip-rule="evenodd" d="M11.7046 0.295367C11.3108 -0.0984551 10.6723 -0.0984558 10.2785 0.295366L6 4.57382L1.72154 0.295366C1.32772 -0.0984558 0.689208 -0.0984551 0.295386 0.295367C-0.098436 0.689189 -0.098436 1.3277 0.295386 1.72152L4.57384 5.99998L0.295366 10.2785C-0.0984555 10.6723 -0.0984555 11.3108 0.295366 11.7046C0.689188 12.0984 1.3277 12.0984 1.72152 11.7046L6 7.42613L10.2785 11.7046C10.6723 12.0984 11.3108 12.0984 11.7046 11.7046C12.0984 11.3108 12.0984 10.6723 11.7046 10.2785L7.42615 5.99998L11.7046 1.72152C12.0984 1.3277 12.0984 0.689189 11.7046 0.295367Z" fill="#DEDEDE"/></svg>