<svg width="52" height="47" fill="none" xmlns="http://www.w3.org/2000/svg"><path d="M22.3286 22.3291H17.1758V25.7643V34.3523H18.8934V29.1995H22.3286C24.2179 29.1995 25.7637 27.6536 25.7637 25.7643C25.7637 23.875 24.2179 22.3291 22.3286 22.3291ZM22.3286 27.482H18.8934V24.0468H22.3286C23.3591 24.0468 24.0462 24.7338 24.0462 25.7644C24.0462 26.7949 23.3591 27.482 22.3286 27.482Z" fill="#00B6F4"/><path d="M32.6332 22.3291H27.4805V34.3523H32.6332C34.5226 34.3523 36.0684 32.8064 36.0684 30.9171V25.7643C36.0684 23.875 34.5226 22.3291 32.6332 22.3291ZM34.3508 30.9172C34.3508 31.9477 33.6638 32.6347 32.6332 32.6347H29.1981V24.0468H32.6332C33.6638 24.0468 34.3508 24.7338 34.3508 25.7644V30.9172Z" fill="#00B6F4"/><path d="M46.375 17.1759H32.6343V12.0231L22.3287 0H3.43519C1.54579 0 0 1.54579 0 3.43519V42.9398C0 44.8291 1.54579 46.375 3.43519 46.375H29.1991C31.0884 46.375 32.6343 44.8291 32.6343 42.9398V39.5046H46.375C49.295 39.5046 51.5278 37.2718 51.5278 34.3519V22.3286C51.5278 19.4088 49.295 17.1759 46.375 17.1759ZM22.3287 2.57634L30.4014 12.0231H24.0463C23.1875 12.0231 22.3287 11.1644 22.3287 10.3056V2.57634ZM30.9167 42.9397C30.9167 43.7985 30.2296 44.6573 29.1991 44.6573H3.43519C2.57643 44.6573 1.71759 43.9703 1.71759 42.9397V3.43519C1.71759 2.57643 2.40463 1.71759 3.43519 1.71759H20.6111V10.3056C20.6111 12.195 22.1569 13.7407 24.0463 13.7407H30.9167V17.1759H17.1759C14.256 17.1759 12.0231 19.4088 12.0231 22.3287V34.3519C12.0231 37.2718 14.256 39.5046 17.1759 39.5046H30.9167V42.9397ZM49.8102 34.3519C49.8102 36.2412 48.2643 37.787 46.375 37.787H17.1759C15.2865 37.787 13.7407 36.2412 13.7407 34.3519V22.3286C13.7407 20.4392 15.2865 18.8934 17.1759 18.8934H46.375C48.2643 18.8934 49.8102 20.4392 49.8102 22.3286V34.3519Z" fill="#00B6F4"/><path d="M37.7852 34.3523H39.5027V29.1995H44.6555V27.482H39.5027V24.0468H46.3731V22.3291H37.7852V34.3523Z" fill="#00B6F4"/></svg>