<svg width="22" height="22" fill="none" xmlns="http://www.w3.org/2000/svg"><path d="M13.1849 10.0429L11.4632 11.7646V5.34261C11.4632 5.08619 11.2554 4.87832 10.9989 4.87832C10.7425 4.87832 10.5347 5.08619 10.5347 5.34261V11.7646L8.81295 10.0429C8.63164 9.86156 8.33767 9.86156 8.15636 10.0429C7.97504 10.2242 7.97504 10.5182 8.15636 10.6995L10.6706 13.2138C10.852 13.3951 11.1459 13.3951 11.3272 13.2138L13.8415 10.6995C14.0228 10.5182 14.0228 10.2242 13.8415 10.0429C13.6602 9.86156 13.3662 9.86156 13.1849 10.0429ZM16.0275 12.4212C15.7711 12.4212 15.5632 12.629 15.5632 12.8855V14.7712C15.5632 15.2091 15.2083 15.564 14.7704 15.564H7.22751C6.78963 15.564 6.43466 15.2091 6.43466 14.7712V12.8855C6.43466 12.629 6.22679 12.4212 5.97037 12.4212C5.71395 12.4212 5.50608 12.629 5.50608 12.8855V14.7712C5.50608 15.7219 6.27679 16.4926 7.22751 16.4926H14.7704C15.7211 16.4926 16.4918 15.7219 16.4918 14.7712V12.8855C16.4918 12.629 16.2839 12.4212 16.0275 12.4212Z" fill="#DEDEDE" stroke="#DEDEDE" stroke-width="0.3"/><circle cx="11" cy="11" r="10.5" stroke="#DEDEDE"/></svg>