<svg width="35" height="35" fill="none" xmlns="http://www.w3.org/2000/svg"><path d="M21.0404 16.0404L18.15 18.9308V8.5C18.15 8.14101 17.859 7.85 17.5 7.85C17.141 7.85 16.85 8.14101 16.85 8.5V18.9308L13.9596 16.0404C13.7058 15.7865 13.2942 15.7865 13.0404 16.0404C12.7865 16.2942 12.7865 16.7058 13.0404 16.9596L17.0404 20.9596C17.2942 21.2135 17.7058 21.2135 17.9596 20.9596L21.9596 16.9596C22.2135 16.7058 22.2135 16.2942 21.9596 16.0404C21.7058 15.7865 21.2942 15.7865 21.0404 16.0404ZM25.5 19.85C25.141 19.85 24.85 20.141 24.85 20.5V23.5C24.85 24.2456 24.2456 24.85 23.5 24.85H11.5C10.7544 24.85 10.15 24.2456 10.15 23.5L10.15 20.5C10.15 20.141 9.85899 19.85 9.5 19.85C9.14102 19.85 8.85 20.141 8.85 20.5V23.5C8.85 24.9636 10.0364 26.15 11.5 26.15H23.5C24.9636 26.15 26.15 24.9636 26.15 23.5V20.5C26.15 20.141 25.859 19.85 25.5 19.85Z" fill="#00B6F4" stroke="#00B6F4" stroke-width="0.3"/><circle cx="17.5" cy="17.5" r="17" stroke="#00B6F4"/></svg>