<svg width="16" height="16" fill="none" xmlns="http://www.w3.org/2000/svg"><g opacity="0.5"><path fill-rule="evenodd" clip-rule="evenodd" d="M2.5 2.5H14C15.1046 2.5 16 3.39543 16 4.5V12C16 13.1046 15.1046 14 14 14H12.9999L13 16L9.00012 14H4.5C3.39543 14 2.5 13.1046 2.5 12V2.5ZM8.08491 9.61815C8.08491 9.43106 8.10414 9.26402 8.14262 9.11703C8.1859 8.97003 8.24843 8.83862 8.33019 8.72281C8.41195 8.60699 8.51776 8.50231 8.64761 8.40877C8.78228 8.31077 8.93859 8.22168 9.11654 8.1415L10.5093 7.52094C10.8206 7.38227 11.0211 7.07343 11.0211 6.73269C11.0211 6.2561 10.6347 5.86974 10.1581 5.86974H8.09697C7.75562 5.86974 7.47891 6.14645 7.47891 6.48779C7.47891 6.82913 7.2022 7.10585 6.86086 7.10585H6.73946C6.33107 7.10585 6 6.77478 6 6.36639V5.86974C6 5.68265 6.03848 5.5067 6.11543 5.34189C6.19238 5.17262 6.29819 5.02785 6.43285 4.90758C6.56752 4.78286 6.72383 4.68486 6.90178 4.61359C7.08454 4.53786 7.27691 4.5 7.47891 4.5H11.0211C11.2231 4.5 11.4131 4.53786 11.591 4.61359C11.7738 4.68486 11.9325 4.78286 12.0671 4.90758C12.2018 5.02785 12.3076 5.17262 12.3846 5.34189C12.4615 5.5067 12.5 5.68265 12.5 5.86974V7.04571C12.5 7.2328 12.4808 7.39984 12.4423 7.54684C12.4038 7.69383 12.3437 7.82747 12.2619 7.94774C12.1802 8.06355 12.072 8.16823 11.9373 8.26177C11.8074 8.35532 11.6511 8.44441 11.4684 8.52904L9.5566 9.37093V9.79101C9.5566 10.1974 9.22715 10.5269 8.82075 10.5269C8.41436 10.5269 8.08491 10.1974 8.08491 9.79101V9.61815ZM9.50895 11.5558C9.50895 11.9101 9.19888 12.1973 8.81638 12.1973C8.43389 12.1973 8.12382 11.9101 8.12382 11.5558C8.12382 11.2016 8.43389 10.9144 8.81638 10.9144C9.19888 10.9144 9.50895 11.2016 9.50895 11.5558Z" fill="white"/><path fill-rule="evenodd" clip-rule="evenodd" d="M0.182889 0.259181C0.0689444 0.390722 0 0.56231 0 0.75V11.25C0 11.6642 0.335786 12 0.75 12C1.16421 12 1.5 11.6642 1.5 11.25V1.5L11.25 1.5C11.6642 1.5 12 1.16421 12 0.75C12 0.335786 11.6642 0 11.25 0H0.75C0.557911 0 0.382689 0.0722134 0.25 0.190973C0.226214 0.212263 0.203794 0.235048 0.182889 0.259181Z" fill="white"/></g></svg>