<svg width="16" height="13" viewBox="0 0 16 13" fill="none" xmlns="http://www.w3.org/2000/svg">
<path fill-rule="evenodd" clip-rule="evenodd" d="M15.8983 4.68337C15.7554 4.4921 12.3496 0 7.99992 0C3.65019 0 0.244313 4.4921 0.101531 4.68319C-0.0338438 4.86465 -0.0338438 5.11076 0.101531 5.29222C0.244313 5.48349 3.65019 9.97559 7.99992 9.97559C12.3496 9.97559 15.7554 5.48346 15.8983 5.29237C16.0339 5.11095 16.0339 4.86465 15.8983 4.68337ZM7.99992 8.94364C4.79588 8.94364 2.02085 5.96214 1.19938 4.98745C2.01979 4.01189 4.78901 1.03195 7.99992 1.03195C11.2038 1.03195 13.9787 4.01293 14.8005 4.98815C13.9801 5.96367 11.2108 8.94364 7.99992 8.94364ZM5.27585 10.7638L6.24177 11.017L5.72414 12.9067L4.75821 12.6536L5.27585 10.7638ZM10.9659 10.8571L10 11.1102L10.5176 13L11.4836 12.7468L10.9659 10.8571ZM14 9.38974L14.866 8.90063L15.866 10.5949L15 11.084L14 9.38974ZM1.86603 9.38976L1 8.90065L0 10.595L0.866025 11.0841L1.86603 9.38976Z" fill="#818181"/>
</svg>
