<svg width="22" height="22" viewBox="0 0 22 22" fill="none" xmlns="http://www.w3.org/2000/svg">
<g clip-path="url(#clip0_2866_7263)">
<path d="M20.0287 11.4566L16.6037 14.8815C16.3511 15.134 15.9425 15.1344 15.6899 14.8835C15.4367 14.6325 15.4344 14.2229 15.6842 13.9687L17.9696 11.6441H8.76944C8.41202 11.6441 8.12207 11.3572 8.12207 10.9996C8.12207 10.642 8.41205 10.3551 8.76944 10.3551H18.008L15.6879 8.03357C15.4354 7.78084 15.4354 7.36998 15.6879 7.11728C15.8143 6.99084 15.9802 6.92718 16.1458 6.92718C16.3113 6.92718 16.4772 6.9902 16.6036 7.11663L20.0287 10.5414C20.15 10.6628 20.2182 10.8274 20.2182 10.999C20.2182 11.1706 20.1501 11.3353 20.0287 11.4566Z" fill="black"/>
<path d="M15.0156 5.07994C14.6582 5.07994 14.3711 4.79013 14.3711 4.43257V1.28906H3.07031V20.7109H14.3711V17.5661C14.3711 17.2086 14.6582 16.9188 15.0156 16.9188C15.373 16.9188 15.6602 17.2086 15.6602 17.5661V21.3573C15.6602 21.7149 15.3661 22 15.0087 22H2.42804C2.07064 22 1.78125 21.7149 1.78125 21.3573V0.641373C1.78125 0.28381 2.07064 -2.09808e-05 2.42806 -2.09808e-05H15.0087C15.3661 -2.09808e-05 15.6602 0.283787 15.6602 0.641373V4.43257C15.6602 4.79013 15.373 5.07994 15.0156 5.07994Z" fill="black"/>
</g>
<defs>
<clipPath id="clip0_2866_7263">
<rect width="22" height="22" fill="white" transform="matrix(1 0 0 -1 0 22)"/>
</clipPath>
</defs>
</svg>
