<svg width="230" height="54" viewBox="0 0 230 54" fill="none" xmlns="http://www.w3.org/2000/svg">
<path d="M0 41.5504V12.6004H4.47471V24.7504H6.11544L10.2918 12.6004H15.0649L10.2918 26.7004L15.5123 41.5504H10.7393L6.26459 29.1004H4.47471V41.5504H0ZM23.716 12.1504C25.2075 12.1504 26.2516 12.3004 27.1466 12.7504C28.0415 13.2004 28.7873 13.8004 29.2348 14.5504C29.6822 15.3004 30.1297 16.2004 30.2789 17.1004C30.428 18.0004 30.5772 19.2004 30.5772 20.2504V33.7504C30.5772 34.8004 30.428 35.8504 30.2789 36.9004C30.1297 37.9504 29.6822 38.7004 29.2348 39.4504C28.7873 40.2004 28.0415 40.8004 27.1466 41.2504C26.2516 41.7004 25.0584 41.8504 23.716 41.8504C22.3735 41.8504 21.1803 41.7004 20.2853 41.2504C19.3904 40.8004 18.6446 40.2004 18.1971 39.4504C17.7497 38.7004 17.3022 37.8004 17.153 36.9004C17.0039 36.0004 16.8547 34.8004 16.8547 33.7504V20.2504C16.8547 19.2004 17.0039 18.1504 17.153 17.1004C17.3022 16.0504 17.7497 15.3004 18.1971 14.5504C18.6446 13.8004 19.3904 13.2004 20.2853 12.7504C21.1803 12.3004 22.3735 12.1504 23.716 12.1504ZM23.716 37.5004C23.8651 37.5004 23.8651 37.5004 23.716 37.5004C23.8651 37.5004 23.8651 37.5004 23.716 37.5004C24.3126 37.5004 24.7601 37.3504 25.0584 37.2004C25.3567 37.0504 25.655 36.7504 25.8042 36.3004C25.9533 35.8504 26.1025 35.5504 26.1025 35.1004C26.1025 34.6504 26.2516 34.2004 26.2516 33.7504V19.0504C26.2516 18.6004 26.1025 18.1504 25.9533 17.8504C25.8042 17.5504 25.5058 17.2504 25.2075 16.9504C24.9092 16.6504 24.3126 16.5004 23.8651 16.5004H23.716C23.1193 16.5004 22.821 16.6504 22.3735 16.8004C21.9261 16.9504 21.7769 17.2504 21.6278 17.7004C21.4786 18.1504 21.3294 18.4504 21.3294 18.9004C21.3294 19.3504 21.1803 19.8004 21.1803 20.2504V34.9504C21.1803 35.4004 21.3294 35.8504 21.4786 36.1504C21.6278 36.4504 21.9261 36.7504 22.2244 37.0504C22.5227 37.3504 23.2685 37.5004 23.716 37.5004ZM38.4825 19.9504L38.7808 41.5504H34.6044V12.6004H40.4215L44.1505 30.1504L48.0285 12.6004H53.6965V41.5504H49.5201L49.8184 20.2504L46.0895 37.9504H42.2114L38.4825 19.9504ZM71.7445 24.3004C71.7445 25.6504 71.5953 26.8504 71.297 27.7504C70.9987 28.6504 70.5512 29.4004 69.9546 30.0004C69.358 30.6004 68.6122 30.9004 67.7173 31.2004C66.8223 31.5004 65.7782 31.5004 64.7341 31.5004H62.6459V41.5504H58.1712V12.6004H64.7341C65.7782 12.6004 66.8223 12.7504 67.5681 12.9004C68.3139 13.0504 69.2088 13.5004 69.8055 14.1004C70.4021 14.7004 70.8495 15.4504 71.297 16.3504C71.7445 17.2504 71.7445 18.3004 71.7445 19.6504V24.3004ZM67.2698 19.6504C67.2698 18.7504 67.1206 18.1504 66.6732 17.7004C66.2257 17.2504 65.6291 16.9504 64.7341 16.9504H62.6459V27.1504H64.585C65.6291 27.1504 66.2257 27.0004 66.6732 26.5504C67.1206 26.1004 67.2698 25.3504 67.2698 24.3004V19.6504ZM75.3243 41.5504V12.6004H79.799V37.2004H87.1077V41.5504H75.3243ZM89.4942 41.5504V12.6004H101.725V16.9504H93.9689V24.6004H100.383V28.9504H93.9689V37.2004H101.725V41.5504H89.4942ZM115 41.5504L111.42 31.2004L107.99 41.5504H103.067L108.437 26.5504L103.515 12.6004H108.437L111.569 21.9004L114.702 12.6004H119.624L114.553 26.5504L120.071 41.5504H115Z" fill="white"/>
<path d="M134.92 0V54H229.587V0H134.92ZM166.675 41.55H162.202V29.1H156.835V41.55H152.363V12.6H156.835V24.75H162.202V12.6H166.675V41.55ZM184.415 33.75C184.415 34.8 184.266 35.85 184.117 36.9C183.968 37.95 183.521 38.7 183.074 39.45C182.626 40.2 181.881 40.8 180.987 41.25C180.092 41.7 178.899 41.85 177.558 41.85C176.216 41.85 175.023 41.7 174.129 41.25C173.234 40.8 172.489 40.2 172.042 39.45C171.594 38.7 171.147 37.8 170.998 36.9C170.849 36 170.7 34.8 170.7 33.75V20.25C170.7 19.2 170.849 18.15 170.998 17.1C171.147 16.05 171.594 15.3 172.042 14.55C172.489 13.8 173.234 13.2 174.129 12.75C175.023 12.3 176.216 12.15 177.558 12.15C178.899 12.15 180.092 12.3 180.987 12.75C181.881 13.2 182.626 13.8 183.074 14.55C183.521 15.3 183.968 16.2 184.117 17.1C184.266 18 184.415 19.2 184.415 20.25V33.75ZM201.262 34.5C201.262 35.7 201.113 36.75 200.815 37.65C200.516 38.55 200.069 39.3 199.622 39.9C199.175 40.5 198.28 40.95 197.386 41.4C196.491 41.85 195.448 41.85 194.255 41.85C192.913 41.85 191.72 41.7 190.826 41.4C189.931 41.1 189.186 40.5 188.739 39.9C188.292 39.3 187.844 38.4 187.546 37.5C187.248 36.6 187.248 35.55 187.248 34.35V32.4H191.72V34.35C191.72 34.95 191.72 35.4 191.87 35.7C192.019 36 192.019 36.45 192.317 36.75C192.615 37.05 192.764 37.2 193.062 37.35C193.36 37.5 193.808 37.5 194.255 37.5C194.702 37.5 195.149 37.35 195.448 37.2C195.746 37.05 196.044 36.9 196.193 36.6L196.64 35.7C196.789 35.4 196.789 34.95 196.789 34.5V34.2C196.789 33.6 196.789 33.15 196.64 32.7C196.491 32.25 196.491 31.8 196.342 31.5C196.193 31.2 196.044 30.75 195.746 30.45C195.448 30.15 195.149 29.85 194.702 29.55L192.019 27.75C191.124 27.15 190.379 26.55 189.782 25.95C189.186 25.35 188.739 24.75 188.441 24.15C188.142 23.55 187.993 22.8 187.844 22.05C187.695 21.3 187.695 20.55 187.695 19.5V19.05C187.695 16.5 188.292 14.7 189.484 13.65C190.677 12.6 192.317 12 194.553 12C196.938 12 198.578 12.6 199.622 13.8C200.665 15 201.262 16.8 201.262 19.2V21.45H196.789V18.9C196.789 18.45 196.789 18.15 196.64 17.85C196.491 17.55 196.491 17.25 196.193 16.95C195.895 16.65 195.746 16.5 195.448 16.35C195.149 16.2 194.851 16.2 194.404 16.2C193.957 16.2 193.659 16.2 193.36 16.35C193.062 16.5 192.764 16.65 192.615 16.95L192.168 17.85C192.019 18.15 192.019 18.6 192.019 19.05V19.65C192.019 20.4 192.168 21.15 192.615 21.75C193.062 22.35 193.509 22.95 194.106 23.4L196.491 24.9C197.386 25.5 198.131 25.95 198.727 26.55C199.324 27.15 199.771 27.75 200.218 28.5C200.665 29.25 200.815 29.85 200.964 30.6C201.113 31.35 201.262 32.25 201.262 33.15V34.5ZM216.617 16.95H211.847V41.55H207.374V16.95H202.753V12.6H216.617V16.95Z" fill="white"/>
<path d="M179.495 17.7C179.346 17.4 179.048 17.1 178.75 16.8C178.452 16.5 178.004 16.5 177.408 16.5H177.259C176.663 16.5 176.365 16.65 175.917 16.8C175.47 16.95 175.321 17.25 175.172 17.7C175.023 18.15 174.874 18.45 174.874 18.9C174.874 19.35 174.725 19.8 174.725 20.25V34.95C174.725 35.4 174.874 35.85 175.023 36.15C175.172 36.45 175.47 36.75 175.768 37.05C176.066 37.35 176.514 37.35 177.11 37.35C177.706 37.35 178.004 37.2 178.452 37.05C178.899 36.9 179.048 36.6 179.197 36.15C179.346 35.7 179.495 35.4 179.495 34.95C179.495 34.5 179.644 34.05 179.644 33.6V18.9C179.644 18.45 179.644 18 179.495 17.7Z" fill="white"/>
</svg>
