<svg width="16" height="16" fill="none" xmlns="http://www.w3.org/2000/svg"><g opacity="0.5"><path fill-rule="evenodd" clip-rule="evenodd" d="M9 1C9 1.02659 8.99896 1.05294 8.99692 1.07901C11.8362 1.53403 14 3.89985 14 6.75V12.5H8H2V6.75C2 3.89985 4.16385 1.53403 7.00308 1.07901C7.00104 1.05294 7 1.02659 7 1C7 0.447715 7.44772 0 8 0C8.55229 0 9 0.447715 9 1ZM0 14.25C0 13.8358 0.335786 13.5 0.75 13.5H15.25C15.6642 13.5 16 13.8358 16 14.25C16 14.6642 15.6642 15 15.25 15H9C9 15.5523 8.55229 16 8 16C7.44772 16 7 15.5523 7 15H0.75C0.335786 15 0 14.6642 0 14.25ZM4 6.5C3.44772 6.5 3 6.94772 3 7.5V10.5C3 11.0523 3.44772 11.5 4 11.5C4.55228 11.5 5 11.0523 5 10.5V7.5C5 6.94772 4.55228 6.5 4 6.5Z" fill="white"/></g></svg>