<svg width="16" height="16" fill="none" xmlns="http://www.w3.org/2000/svg"><g opacity="0.5"><path fill-rule="evenodd" clip-rule="evenodd" d="M15.25 0C15.4377 0 15.6093 0.0689444 15.7408 0.182889C15.765 0.203794 15.7877 0.226214 15.809 0.25C15.9278 0.382689 16 0.557911 16 0.75L16 11.25C16 11.6642 15.6642 12 15.25 12C14.8358 12 14.5 11.6642 14.5 11.25L14.5 1.5L4.75 1.5C4.33579 1.5 4 1.16421 4 0.749999C4 0.335786 4.33579 0 4.75 0H15.25ZM2 2.5C0.895431 2.5 0 3.39543 0 4.5V14V14L0.816586 15.8781C0.886299 16.0385 1.1137 16.0385 1.18341 15.8781L1.99999 14H2.00001L2.81659 15.8781C2.8863 16.0385 3.1137 16.0385 3.18341 15.8781L3.99999 14H4.00001L4.81659 15.8781C4.8863 16.0385 5.1137 16.0385 5.18341 15.8781L5.99999 14H6.00001L6.81659 15.8781C6.8863 16.0385 7.1137 16.0385 7.18341 15.8781L7.99999 14H8.00001L8.81659 15.8781C8.8863 16.0385 9.1137 16.0385 9.18341 15.8781L9.99999 14H10L10.8166 15.8781C10.8863 16.0385 11.1137 16.0385 11.1834 15.8781L12 14L13.1285 15.8808C13.2329 16.0548 13.5 15.9808 13.5 15.7779V14V2.5H2ZM9.625 4.375C9.625 4.16789 9.79289 4 10 4C10.2071 4 10.375 4.16789 10.375 4.375V4.79253C11.022 4.94239 11.5 5.47095 11.5 6.09999H10.4999C10.4999 5.85147 10.2761 5.65001 9.99994 5.65001C9.7238 5.65001 9.49994 5.85148 9.49994 6.10001C9.49994 6.34854 9.7238 6.55001 9.99994 6.55001H10V7.44999H10.0001V6.54997C10.8285 6.55003 11.5 7.15442 11.5 7.89997C11.5 8.52902 11.022 9.05758 10.375 9.20744V9.625C10.375 9.83211 10.2071 10 10 10C9.79289 10 9.625 9.83211 9.625 9.625V9.20744C8.97804 9.05758 8.5 8.52902 8.5 7.89997V7.89996H9.49994V7.90001C9.49994 8.14854 9.7238 8.35001 9.99994 8.35001C10.2761 8.35001 10.4999 8.14854 10.4999 7.90001C10.4999 7.65154 10.2762 7.4501 10.0001 7.45001V7.45H10C9.17157 7.45 8.5 6.84558 8.5 6.1C8.5 5.47095 8.97804 4.9424 9.625 4.79253V4.375ZM2 5.5C2 5.22386 2.22386 5 2.5 5H6.5C6.77614 5 7 5.22386 7 5.5C7 5.77614 6.77614 6 6.5 6H2.5C2.22386 6 2 5.77614 2 5.5ZM2.5 7C2.22386 7 2 7.22386 2 7.5C2 7.77614 2.22386 8 2.5 8H6.5C6.77614 8 7 7.77614 7 7.5C7 7.22386 6.77614 7 6.5 7H2.5ZM2 9.5C2 9.22386 2.22386 9 2.5 9H6.5C6.77614 9 7 9.22386 7 9.5C7 9.77614 6.77614 10 6.5 10H2.5C2.22386 10 2 9.77614 2 9.5ZM2.5 11C2.22386 11 2 11.2239 2 11.5C2 11.7761 2.22386 12 2.5 12H11.5C11.7761 12 12 11.7761 12 11.5C12 11.2239 11.7761 11 11.5 11H2.5Z" fill="white"/></g></svg>