<svg width="53" height="53" fill="none" xmlns="http://www.w3.org/2000/svg"><g clip-path="url(#clip0_2637_19342)"><path d="M8.60384 14.2042H6.9719V12.5723H8.60384V14.2042ZM5.33995 14.2042H3.70801V12.5723H5.33995V14.2042Z" fill="white"/><path d="M16.7637 12.5723H21.6595V14.2042H16.7637V12.5723Z" fill="white"/><path d="M8.60384 20.7325H6.9719V19.1006H8.60384V20.7325ZM5.33995 20.7325H3.70801V19.1006H5.33995V20.7325Z" fill="white"/><path d="M16.7637 19.1006H21.6595V20.7325H16.7637V19.1006Z" fill="white"/><path d="M8.60384 27.2599H6.9719V25.6279H8.60384V27.2599ZM5.33995 27.2599H3.70801V25.6279H5.33995V27.2599Z" fill="white"/><path d="M16.7637 25.6279H21.6595V27.2599H16.7637V25.6279Z" fill="white"/><path d="M8.60384 33.7882H6.9719V32.1562H8.60384V33.7882ZM5.33995 33.7882H3.70801V32.1562H5.33995V33.7882Z" fill="white"/><path d="M16.7637 32.1562H21.6595V33.7882H16.7637V32.1562Z" fill="white"/><path d="M8.60384 40.3155H6.9719V38.6836H8.60384V40.3155ZM5.33995 40.3155H3.70801V38.6836H5.33995V40.3155Z" fill="white"/><path d="M16.7637 38.6836H21.6595V40.3155H16.7637V38.6836Z" fill="white"/><path d="M36.347 14.2042H34.7151V12.5723H36.347V14.2042ZM33.0831 14.2042H31.4512V12.5723H33.0831V14.2042Z" fill="white"/><path d="M44.5068 12.5723H49.4027V14.2042H44.5068V12.5723Z" fill="white"/><path d="M36.347 20.7325H34.7151V19.1006H36.347V20.7325ZM33.0831 20.7325H31.4512V19.1006H33.0831V20.7325Z" fill="white"/><path d="M44.5068 19.1006H49.4027V20.7325H44.5068V19.1006Z" fill="white"/><path d="M36.347 27.2599H34.7151V25.6279H36.347V27.2599ZM33.0831 27.2599H31.4512V25.6279H33.0831V27.2599Z" fill="white"/><path d="M44.5068 25.6279H49.4027V27.2599H44.5068V25.6279Z" fill="white"/><path d="M36.347 33.7882H34.7151V32.1562H36.347V33.7882ZM33.0831 33.7882H31.4512V32.1562H33.0831V33.7882Z" fill="white"/><path d="M44.5068 32.1562H49.4027V33.7882H44.5068V32.1562Z" fill="white"/><path d="M36.347 40.3155H34.7151V38.6836H36.347V40.3155ZM33.0831 40.3155H31.4512V38.6836H33.0831V40.3155Z" fill="white"/><path d="M44.5068 38.6836H49.4027V40.3155H44.5068V38.6836Z" fill="white"/><path d="M0.444336 52.5552H24.9235V0.333008H0.444336V52.5552ZM2.07628 5.22884H3.70822V3.5969H2.07628V1.96495H23.2916V3.5969H21.6596V5.22884H23.2916V9.3087H2.07628V5.22884ZM2.07628 10.9406H23.2916V15.8365H2.07628V10.9406ZM2.07628 17.4684H23.2916V22.3643H2.07628V17.4684ZM2.07628 23.9962H23.2916V28.892H2.07628V23.9962ZM2.07628 30.524H23.2916V35.4198H2.07628V30.524ZM2.07628 37.0518H23.2916V41.9476H2.07628V37.0518ZM2.07628 49.2913H3.70822V47.6594H2.07628V43.5795H23.2916V47.6594H21.6596V49.2913H23.2916V50.9233H2.07628V49.2913Z" fill="white"/><path d="M2.07617 3.59668H20.0276V5.22862H2.07617V3.59668Z" fill="white"/><path d="M2.07617 47.6592H20.0276V49.2911H2.07617V47.6592Z" fill="white"/><path d="M28.1875 0.333008V52.5552H52.6667V0.333008H28.1875ZM51.0347 47.6594H49.4028V49.2913H51.0347V50.9233H29.8194V49.2913H31.4514V47.6594H29.8194V43.5795H51.0347V47.6594ZM51.0347 41.9476H29.8194V37.0518H51.0347V41.9476ZM51.0347 35.4198H29.8194V30.524H51.0347V35.4198ZM51.0347 28.892H29.8194V23.9962H51.0347V28.892ZM51.0347 22.3643H29.8194V17.4684H51.0347V22.3643ZM51.0347 15.8365H29.8194V10.9406H51.0347V15.8365ZM51.0347 3.5969H49.4028V5.22884H51.0347V9.3087H29.8194V5.22884H31.4514V3.5969H29.8194V1.96495H51.0347V3.5969Z" fill="white"/><path d="M29.2588 3.59668H47.7712V5.22862H29.2588V3.59668Z" fill="white"/><path d="M29.2588 47.6592H47.7712V49.2911H29.2588V47.6592Z" fill="white"/></g><defs><clipPath id="clip0_2637_19342"><rect width="52.2222" height="52.2222" fill="white" transform="translate(0.444336 0.333008)"/></clipPath></defs></svg>