<svg width="78" height="53" fill="none" xmlns="http://www.w3.org/2000/svg"><path d="M46.2561 33.1403C48.6347 31.5694 50.444 29.273 51.4157 26.5917C52.3874 23.9104 52.4696 20.9871 51.6503 18.2553C50.8309 15.5235 49.1536 13.1288 46.8671 11.4264C44.5806 9.72406 41.8068 8.80469 38.957 8.80469C36.1073 8.80469 33.3334 9.72406 31.047 11.4264C28.7605 13.1288 27.0832 15.5235 26.2638 18.2553C25.4444 20.9871 25.5267 23.9104 26.4984 26.5917C27.47 29.273 29.2794 31.5694 31.658 33.1403C27.5908 34.6302 24.0787 37.3337 21.5959 40.8855C19.1132 44.4373 17.7797 48.6662 17.7754 53.001H21.2961C21.3035 48.7637 22.8303 44.6699 25.5986 41.4641C28.367 38.2583 32.193 36.1535 36.3809 35.5325L37.9266 37.5164L35.8728 49.5846L38.9213 53.001L41.984 49.5846L39.9517 37.5164L41.5046 35.5325C45.6885 36.1581 49.5095 38.265 52.2735 41.4703C55.0375 44.6757 56.5612 48.7669 56.5679 53.001H60.1101C60.1029 48.6708 58.7715 44.4467 56.2948 40.8963C53.8182 37.3458 50.315 34.6392 46.2561 33.1403ZM38.9284 31.8296C37.0088 31.8254 35.1334 31.2518 33.5393 30.1812C31.9453 29.1107 30.704 27.5913 29.9723 25.815C29.2406 24.0387 29.0513 22.0852 29.4285 20.2013C29.8056 18.3174 30.7321 16.5877 32.091 15.2306C33.4499 13.8735 35.1802 12.95 37.0633 12.5767C38.9464 12.2034 40.8978 12.3972 42.6709 13.1334C44.4441 13.8696 45.9594 15.1154 47.0255 16.7132C48.0915 18.311 48.6605 20.1892 48.6605 22.1106C48.6596 23.3884 48.4071 24.6536 47.9174 25.8337C47.4277 27.0139 46.7105 28.0859 45.8067 28.9885C44.9029 29.8911 43.8302 30.6066 42.65 31.0941C41.4698 31.5816 40.2052 31.8315 38.9284 31.8296Z" fill="#DEDEDE"/><path d="M64.0246 24.3083C66.4012 22.7418 68.2082 20.4483 69.176 17.77C70.1438 15.0916 70.2206 12.1719 69.3949 9.44627C68.5692 6.72065 66.8854 4.33521 64.5944 2.64574C62.3035 0.956271 59.5282 0.0533 56.6826 0.0715117C53.2752 0.0251505 49.9868 1.32467 47.5301 3.6884C46.628 4.52895 45.8497 5.49355 45.2188 6.55327C46.3371 6.96844 47.3958 7.52954 48.3674 8.22205C49.0093 7.21676 49.8119 6.32392 50.7432 5.57921C52.4586 4.29465 54.5402 3.5943 56.6826 3.58097C59.0306 3.56734 61.3033 4.40945 63.0765 5.95009C64.8496 7.49072 66.0019 9.62456 66.3182 11.9532C66.6346 14.2819 66.0934 16.6462 64.7956 18.6047C63.4979 20.5633 61.5323 21.9822 59.2659 22.5965C58.398 22.8174 57.5066 22.9328 56.611 22.9403C56.3063 22.9521 56.0013 22.9281 55.7022 22.8687C55.6458 24.1103 55.444 25.3411 55.1011 26.5357C55.6097 26.4495 56.124 26.4016 56.6397 26.3925C57.3406 26.4043 58.0404 26.4521 58.7364 26.5357C63.0311 27.0412 66.991 29.1074 69.8641 32.3421C72.7372 35.5769 74.3236 39.7549 74.322 44.083H77.9C77.9307 39.7516 76.6104 35.5186 74.1232 31.9739C71.636 28.4292 68.1058 25.7495 64.0246 24.3083Z" fill="#DEDEDE"/><path d="M21.2461 26.5007C21.7616 26.5126 22.2757 26.5604 22.7846 26.644C22.4419 25.4297 22.2402 24.1801 22.1835 22.9196C21.9044 22.9196 21.5538 22.9912 21.2747 22.9912C20.3738 22.9803 19.4775 22.86 18.6055 22.6331C16.3466 22.0138 14.3891 20.5949 13.0968 18.6399C11.8045 16.6849 11.2652 14.3268 11.5791 12.0038C11.8931 9.68079 13.0389 7.55085 14.8037 6.00974C16.5686 4.46863 18.8324 3.62114 21.1745 3.62476C23.3234 3.633 25.411 4.34206 27.1211 5.64449C28.0867 6.35196 28.8956 7.25177 29.4969 8.28733C30.4985 7.64918 31.5489 7.09118 32.6383 6.61854C32.0099 5.55906 31.234 4.59445 30.3341 3.75368C29.1491 2.54887 27.7335 1.59555 26.172 0.950721C24.6105 0.30589 22.9352 -0.0172188 21.2461 0.000707029C18.3985 -0.0211885 15.6203 0.879965 13.3269 2.56944C11.0336 4.25892 9.34811 6.64595 8.52261 9.37368C7.6971 12.1014 7.77589 15.0233 8.74718 17.7025C9.71847 20.3817 11.5301 22.6742 13.9112 24.2375C9.84334 25.747 6.33228 28.4624 3.84666 32.0213C1.36104 35.5802 0.0191158 39.8133 0 44.1554H3.57798C3.58886 39.8308 5.17955 35.6595 8.05035 32.4274C10.9211 29.1953 14.8738 27.1255 19.1637 26.6081C19.8556 26.5374 20.5506 26.5016 21.2461 26.5007Z" fill="#DEDEDE"/></svg>