<svg width="49" height="51" viewBox="0 0 49 51" fill="none" xmlns="http://www.w3.org/2000/svg">
<g clip-path="url(#clip0_2841_45)">
<path d="M32.9887 28.0493C35.1022 26.6567 36.8382 24.7639 38.0422 22.5395C39.2463 20.315 39.8811 17.8279 39.8901 15.2993C39.8901 11.2324 38.2723 7.33197 35.3926 4.4562C32.5128 1.58043 28.6071 -0.0351562 24.5345 -0.0351562C20.4619 -0.0351562 16.5562 1.58043 13.6764 4.4562C10.7967 7.33197 9.17887 11.2324 9.17887 15.2993C9.18793 17.8279 9.82273 20.315 11.0268 22.5395C12.2308 24.7639 13.9668 26.6567 16.0803 28.0493C11.3691 29.7699 7.30059 32.8936 4.42473 36.9981C1.54887 41.1026 0.00435789 45.9899 0 50.9993H4.07183C4.08307 46.103 5.85268 41.3731 9.05917 37.669C12.2657 33.9649 16.6963 31.5322 21.5462 30.813L23.313 33.0804L20.9596 47.0503L24.4862 50.9993L28.0404 47.0503L25.687 33.0804L27.4538 30.7854C32.3084 31.5053 36.7427 33.942 39.9498 37.6519C43.1569 41.3618 44.9235 46.0983 44.9282 50.9993H49C48.9959 45.9992 47.4596 41.1201 44.5974 37.0176C41.7352 32.915 37.6842 29.7854 32.9887 28.0493ZM24.5 26.5331C22.2751 26.5331 20.1002 25.8742 18.2502 24.6399C16.4003 23.4055 14.9584 21.651 14.107 19.5983C13.2556 17.5456 13.0328 15.2868 13.4669 13.1077C13.9009 10.9286 14.9723 8.92689 16.5455 7.35582C18.1188 5.78475 20.1232 4.71483 22.3054 4.28137C24.4875 3.84792 26.7494 4.07038 28.8049 4.92064C30.8605 5.7709 32.6174 7.21076 33.8534 9.05815C35.0895 10.9055 35.7493 13.0775 35.7493 15.2993C35.7493 16.7745 35.4583 18.2353 34.893 19.5983C34.3277 20.9612 33.499 22.1996 32.4545 23.2428C31.4099 24.2859 30.1697 25.1134 28.8049 25.678C27.4401 26.2425 25.9773 26.5331 24.5 26.5331Z" fill="#DEDEDE"/>
</g>
<defs>
<clipPath id="clip0_2841_45">
<rect width="49" height="51" fill="white"/>
</clipPath>
</defs>
</svg>
