<svg width="49" height="52" viewBox="0 0 49 52" fill="none" xmlns="http://www.w3.org/2000/svg">
<path d="M32.9887 28.6C37.1296 25.7892 39.8901 21.0108 39.8901 15.6C39.8211 7.02703 32.9887 0 24.5 0C16.0113 0 9.17887 7.02703 9.17887 15.6C9.17887 21.0108 11.9394 25.7892 16.0803 28.6C6.69437 32.1135 0 41.2486 0 52H4.07183C4.07183 40.5459 13.2507 31.2 24.5 31.2C35.7493 31.2 44.9282 40.5459 44.9282 52H49C49 41.2486 42.3056 32.1135 32.9887 28.6ZM24.5 27.0541C18.2887 27.0541 13.2507 21.9243 13.2507 15.6C13.2507 9.27568 18.2887 4.14595 24.5 4.14595C30.7113 4.14595 35.7493 9.27568 35.7493 15.6C35.7493 21.9243 30.7113 27.0541 24.5 27.0541Z" fill="#DEDEDE"/>
</svg>
