<svg width="72" height="48" fill="none" xmlns="http://www.w3.org/2000/svg"><rect x="70" y="46" width="68" height="44" transform="rotate(180 70 46)" fill="#EDF9FF"/><rect x="2" y="39" width="68" height="7" fill="white"/><path fill-rule="evenodd" clip-rule="evenodd" d="M4 -1.74846e-07C1.79086 -7.8281e-08 -2.01987e-06 1.79086 -1.9233e-06 4L-2.09815e-06 44C-2.09815e-06 46.2091 1.79086 48 4 48L68 48C70.2091 48 72 46.2091 72 44L72 4C72 1.79086 70.2091 7.45758e-07 68 8.42323e-07L4 -1.74846e-07ZM4 2C2.89543 2 2 2.89543 2 4L2 44C2 45.1046 2.89543 46 4 46L35 46L35 2L4 2ZM68 46L37 46L37 2L68 2C69.1046 2 70 2.89543 70 4L70 44C70 45.1046 69.1046 46 68 46ZM47 10C46.4477 10 46 10.4477 46 11C46 11.5523 46.4477 12 47 12L61 12C61.5523 12 62 11.5523 62 11C62 10.4477 61.5523 10 61 10L47 10ZM49 16C49 15.4477 49.4477 15 50 15L58 15C58.5523 15 59 15.4477 59 16C59 16.5523 58.5523 17 58 17L50 17C49.4477 17 49 16.5523 49 16ZM45 20C44.4477 20 44 20.4477 44 21C44 21.5523 44.4477 22 45 22L63 22C63.5523 22 64 21.5523 64 21C64 20.4477 63.5523 20 63 20L45 20Z" fill="#00B6F4"/></svg>