<svg width="72" height="48" viewBox="0 0 72 48" fill="none" xmlns="http://www.w3.org/2000/svg">
<rect x="70" y="46" width="6" height="44" transform="rotate(180 70 46)" fill="white"/>
<rect x="64" y="46" width="62" height="44" transform="rotate(180 64 46)" fill="#EDF9FF"/>
<path fill-rule="evenodd" clip-rule="evenodd" d="M4 -1.74846e-07C1.79086 -7.8281e-08 -2.01987e-06 1.79086 -1.9233e-06 4L-2.09815e-06 44C-2.09815e-06 46.2091 1.79086 48 4 48L68 48C70.2091 48 72 46.2091 72 44L72 4C72 1.79086 70.2091 7.45758e-07 68 8.42323e-07L4 -1.74846e-07ZM4 2C2.89543 2 2 2.89543 2 4L2 44C2 45.1046 2.89543 46 4 46L35 46L35 2L4 2ZM68 46L37 46L37 2L68 2C69.1046 2 70 2.89543 70 4L70 44C70 45.1046 69.1046 46 68 46ZM7 35C7 35.5523 7.44771 36 8 36C8.55228 36 9 35.5523 9 35L9 13C9 12.4477 8.55228 12 8 12C7.44771 12 7 12.4477 7 13L7 35ZM13 32C12.4477 32 12 31.5523 12 31L12 17C12 16.4477 12.4477 16 13 16C13.5523 16 14 16.4477 14 17L14 31C14 31.5523 13.5523 32 13 32ZM26 21C26 21.5523 26.4477 22 27 22C27.5523 22 28 21.5523 28 21L28 7C28 6.44771 27.5523 6 27 6C26.4477 6 26 6.44771 26 7L26 21ZM47 25C46.4477 25 46 24.5523 46 24L46 10C46 9.44771 46.4477 9 47 9C47.5523 9 48 9.44771 48 10L48 24C48 24.5523 47.5523 25 47 25ZM51 21C51 21.5523 51.4477 22 52 22C52.5523 22 53 21.5523 53 21L53 13C53 12.4477 52.5523 12 52 12C51.4477 12 51 12.4477 51 13L51 21ZM57 27C56.4477 27 56 26.5523 56 26L56 8C56 7.44771 56.4477 7 57 7C57.5523 7 58 7.44771 58 8L58 26C58 26.5523 57.5523 27 57 27ZM26 42C26 42.5523 26.4477 43 27 43C27.5523 43 28 42.5523 28 42L28 28C28 27.4477 27.5523 27 27 27C26.4477 27 26 27.4477 26 28L26 42Z" fill="#00B6F4"/>
<circle cx="27" cy="28" r="4" transform="rotate(-90 27 28)" fill="#B45353"/>
<rect x="45" y="43" width="13" height="15" transform="rotate(-90 45 43)" fill="white"/>
<g clip-path="url(#clip0_2076_13579)">
<path d="M54.5 36.5C54.5 34.9806 53.266 33.75 51.75 33.75C50.2306 33.75 49 34.9806 49 36.5C49 38.0193 50.2306 39.25 51.75 39.25C53.2659 39.25 54.5 38.0194 54.5 36.5Z" fill="#00B6F4"/>
<path d="M55.875 36.5C55.875 38.3322 56.7928 42 58.625 42L60 42L60 31L58.625 31C56.7928 31 55.875 34.6678 55.875 36.5Z" fill="#00B6F4"/>
</g>
<defs>
<clipPath id="clip0_2076_13579">
<rect width="11" height="11" fill="white" transform="translate(49 42) rotate(-90)"/>
</clipPath>
</defs>
</svg>
