<svg width="16" height="16" fill="none" xmlns="http://www.w3.org/2000/svg"><path fill-rule="evenodd" clip-rule="evenodd" d="M10.8693 11.5857C9.71769 12.5732 8.22099 13.1699 6.58494 13.1699C2.94818 13.1699 0 10.2217 0 6.58495C0 2.94818 2.94818 0 6.58494 0C10.2217 0 13.1699 2.94818 13.1699 6.58495C13.1699 8.22099 12.5732 9.71769 11.5857 10.8693L15.8516 15.1353C16.0495 15.3331 16.0495 15.6538 15.8516 15.8516C15.6538 16.0495 15.3331 16.0495 15.1353 15.8516L10.8693 11.5857ZM12.1568 6.58495C12.1568 9.66221 9.66219 12.1568 6.58493 12.1568C3.50767 12.1568 1.01306 9.66221 1.01306 6.58495C1.01306 3.50768 3.50767 1.01307 6.58493 1.01307C9.66219 1.01307 12.1568 3.50768 12.1568 6.58495Z" fill="#818181"/></svg>