<svg width="25" height="25" fill="none" xmlns="http://www.w3.org/2000/svg"><path fill-rule="evenodd" clip-rule="evenodd" d="M19.7991 2.82843C18.237 1.26633 15.7044 1.26633 14.1423 2.82843L3.53567 13.435C1.58305 15.3876 1.58305 18.5535 3.53567 20.5061C5.4883 22.4587 8.65412 22.4587 10.6067 20.5061L21.2133 9.89949L20.5062 9.19239L12.0213 17.6773L9.89964 19.799C8.33754 21.3611 5.80488 21.3611 4.24278 19.799C2.68068 18.2369 2.68068 15.7042 4.24278 14.1421L6.36445 12.0205L12.9785 5.40641L14.8494 3.53553C16.021 2.36396 17.9205 2.36396 19.092 3.53553C20.2636 4.70711 20.2636 6.6066 19.092 7.77817L17.2211 9.64905L11.4808 15.3894L9.89964 16.9706C9.11859 17.7516 7.85226 17.7516 7.07121 16.9706C6.29017 16.1895 6.29017 14.9232 7.07121 14.1421L8.65238 12.561L15.5565 5.65685L14.8494 4.94975L6.3641 13.435C5.19253 14.6066 5.19253 16.5061 6.36411 17.6777C7.53568 18.8492 9.43517 18.8492 10.6067 17.6777L19.7991 8.48528C21.3612 6.92318 21.3612 4.39052 19.7991 2.82843Z" fill="#00B6F4"/></svg>