<svg width="53" height="53" viewBox="0 0 53 53" fill="none" xmlns="http://www.w3.org/2000/svg">
<path d="M45.6304 10.3041L46.6504 11.5787L51.5266 7.67753L46.6504 3.77637L45.6304 5.05092L47.8939 6.86156H34.7168V8.4935H47.8939L45.6304 10.3041Z" fill="white"/>
<path d="M39.3064 16.8315L37.0429 15.0208H50.22V13.3889H37.0429L39.3064 11.5783L38.2864 10.3037L33.4102 14.2049L38.2864 18.106L39.3064 16.8315Z" fill="white"/>
<path d="M51.852 32.9723C51.852 25.3234 45.6294 19.1008 37.9805 19.1008C35.6403 19.1008 33.4127 19.6899 31.4527 20.7385V5.22928C31.4527 2.97964 29.6225 1.14941 27.3728 1.14941H9.42144C7.17181 1.14941 5.34158 2.97964 5.34158 5.22928V41.948V42.0158C3.02911 42.4058 1.26172 44.4221 1.26172 46.8439C1.26172 49.5439 3.4575 51.7397 6.15755 51.7397H35.5326C38.7842 51.7397 41.481 49.3473 41.9722 46.2311C47.8146 44.4767 51.852 39.1117 51.852 32.9723ZM36.3151 38.6841C36.178 36.8898 35.5872 35.2236 34.6652 33.7883H43.6784C43.6229 35.5214 43.3895 37.1844 43.0077 38.6841H36.3151ZM42.5099 40.3161C42.2145 41.1361 41.8702 41.8827 41.4802 42.5363C41.0942 41.6828 40.532 40.9272 39.8376 40.3161H42.5099ZM26.5569 23.9966H10.2374V19.1008H26.5569V23.9966ZM42.5059 25.6286H33.4445C34.5028 22.6617 36.1666 20.7327 37.9805 20.7327C39.8017 20.7327 41.4516 22.6805 42.5059 25.6286ZM31.713 25.6286H28.2076C29.6323 23.7298 31.5808 22.279 33.8174 21.4679C32.968 22.5499 32.2499 23.9591 31.713 25.6286ZM27.1737 27.2605H31.2691C31.0569 28.1801 30.8889 29.1519 30.782 30.1776C29.4748 29.4677 28.0044 29.0287 26.441 28.9259C26.6434 28.3466 26.893 27.7934 27.1737 27.2605ZM32.95 27.2605H43.006C43.383 28.7464 43.6148 30.4085 43.6719 32.1564H33.3735C33.0479 31.8185 32.7044 31.4979 32.3372 31.2049C32.4359 29.8006 32.6448 28.4698 32.95 27.2605ZM50.1784 32.1564H45.303C45.2516 30.411 45.0403 28.7619 44.6894 27.2605H48.797C49.5811 28.7391 50.0618 30.3979 50.1784 32.1564ZM45.3103 33.7883H50.1858C50.0691 35.5353 49.586 37.1966 48.7986 38.6841H44.678C45.0378 37.1566 45.2573 35.5002 45.3103 33.7883ZM47.7493 25.6286H44.2341C43.6972 23.9779 42.9873 22.5589 42.1403 21.4761C44.3916 22.2937 46.3319 23.7486 47.7493 25.6286ZM28.1888 23.1701V19.1008C28.1888 18.2008 27.4569 17.4689 26.5569 17.4689H10.2374C9.3374 17.4689 8.60547 18.2008 8.60547 19.1008V23.9966C8.60547 24.8967 9.3374 25.6286 10.2374 25.6286H26.2337C25.9082 26.1508 25.6095 26.6918 25.3525 27.2605H6.97352V15.8369H29.8207V21.7715C29.2414 22.1942 28.6963 22.6617 28.1888 23.1701ZM9.42144 2.78136H27.3728C28.7224 2.78136 29.8207 3.87966 29.8207 5.22928V14.205H6.97352V5.22928C6.97352 3.87966 8.07182 2.78136 9.42144 2.78136ZM6.97352 28.8925H24.7478C24.7421 28.9104 24.7372 28.9292 24.7315 28.9471C23.0727 29.1079 21.497 29.6579 20.1172 30.5244H10.2374C9.3374 30.5244 8.60547 31.2563 8.60547 32.1564V35.4358C7.98696 35.9017 7.43781 36.4525 6.97352 37.0726V28.8925ZM18.105 32.1564C17.4767 32.8091 16.9251 33.5443 16.4755 34.3521C15.5265 33.9776 14.5302 33.7883 13.5013 33.7883C12.341 33.7883 11.2378 34.0355 10.2374 34.4745V32.1564H18.105ZM35.5326 50.1077H6.15755C4.35752 50.1077 2.89366 48.6439 2.89366 46.8439C2.89366 45.0699 4.31672 43.6257 6.08003 43.584L6.20569 43.5849L6.59491 43.5824L7.11795 43.5849L7.01677 42.6783C6.99066 42.4384 6.97352 42.1953 6.97352 41.948C6.97352 38.3488 9.90205 35.4202 13.5013 35.4202C14.5417 35.4202 15.5429 35.6634 16.4763 36.1432L17.2344 36.5324L17.591 35.7581C19.0532 32.579 22.2526 30.5244 25.7409 30.5244C30.6898 30.5244 34.7166 34.5512 34.7166 39.5001V40.3161H35.5326C38.2326 40.3161 40.4284 42.5119 40.4284 45.2119C40.4284 47.912 38.2326 50.1077 35.5326 50.1077ZM42.1354 44.4677C42.9856 43.3768 43.6923 41.9521 44.2235 40.3161H47.7599C46.3548 42.1822 44.4201 43.6452 42.1354 44.4677Z" fill="white"/>
<path d="M24.3117 33.9682L23.9053 32.3877C23.3064 32.5419 22.727 32.7728 22.1836 33.0739L22.9743 34.5011C23.3969 34.2677 23.8474 34.0882 24.3117 33.9682Z" fill="white"/>
<path d="M25.7412 32.1562V33.7882C28.89 33.7882 31.453 36.3503 31.453 39.5C31.453 39.7432 31.4375 39.9822 31.409 40.2172L33.0278 40.4147C33.0662 40.1095 33.085 39.8019 33.085 39.5C33.085 35.4511 29.7909 32.1562 25.7412 32.1562Z" fill="white"/>
<path d="M8.60547 41.9476C8.60547 42.6281 8.74255 43.2874 9.01345 43.9059L10.5083 43.2523C10.3288 42.8411 10.2374 42.4021 10.2374 41.9476C10.2374 40.1476 11.7013 38.6837 13.5013 38.6837V37.0518C10.8012 37.0518 8.60547 39.2475 8.60547 41.9476Z" fill="white"/>
<path d="M16.7653 41.9482C15.4157 41.9482 14.3174 43.0465 14.3174 44.3962C14.3174 45.7458 15.4157 46.8441 16.7653 46.8441C18.1149 46.8441 19.2132 45.7458 19.2132 44.3962C19.2132 43.0465 18.1149 41.9482 16.7653 41.9482ZM16.7653 45.2121C16.3149 45.2121 15.9493 44.8458 15.9493 44.3962C15.9493 43.9466 16.3149 43.5802 16.7653 43.5802C17.2157 43.5802 17.5813 43.9466 17.5813 44.3962C17.5813 44.8458 17.2157 45.2121 16.7653 45.2121Z" fill="white"/>
<path d="M23.2926 41.9482C21.943 41.9482 20.8447 43.0465 20.8447 44.3962C20.8447 45.7458 21.943 46.8441 23.2926 46.8441C24.6423 46.8441 25.7406 45.7458 25.7406 44.3962C25.7406 43.0465 24.6423 41.9482 23.2926 41.9482ZM23.2926 45.2121C22.8422 45.2121 22.4767 44.8458 22.4767 44.3962C22.4767 43.9466 22.8422 43.5802 23.2926 43.5802C23.7431 43.5802 24.1086 43.9466 24.1086 44.3962C24.1086 44.8458 23.7431 45.2121 23.2926 45.2121Z" fill="white"/>
<path d="M29.821 41.9482C28.4713 41.9482 27.373 43.0465 27.373 44.3962C27.373 45.7458 28.4713 46.8441 29.821 46.8441C31.1706 46.8441 32.2689 45.7458 32.2689 44.3962C32.2689 43.0465 31.1706 41.9482 29.821 41.9482ZM29.821 45.2121C29.3705 45.2121 29.005 44.8458 29.005 44.3962C29.005 43.9466 29.3705 43.5802 29.821 43.5802C30.2714 43.5802 30.6369 43.9466 30.6369 44.3962C30.6369 44.8458 30.2714 45.2121 29.821 45.2121Z" fill="white"/>
<path d="M10.2374 12.5728H26.5569C27.4569 12.5728 28.1888 11.8409 28.1888 10.9409V6.04503C28.1888 5.14501 27.4569 4.41309 26.5569 4.41309H10.2374C9.3374 4.41309 8.60547 5.14501 8.60547 6.04503V10.9409C8.60547 11.8409 9.3374 12.5728 10.2374 12.5728ZM10.2374 6.04503H26.5569L26.5577 10.9409H10.2374V6.04503Z" fill="white"/>
<path d="M15.1328 7.67676H16.7648V9.3087H15.1328V7.67676Z" fill="white"/>
<path d="M11.8691 7.67676H13.5011V9.3087H11.8691V7.67676Z" fill="white"/>
<path d="M20.0293 20.7324H21.6612V22.3644H20.0293V20.7324Z" fill="white"/>
<path d="M23.293 20.7324H24.9249V22.3644H23.293V20.7324Z" fill="white"/>
</svg>
