<svg width="51" height="51" viewBox="0 0 51 51" fill="none" xmlns="http://www.w3.org/2000/svg">
<path d="M44.6304 9.30414L45.6504 10.5787L50.5266 6.67753L45.6504 2.77637L44.6304 4.05092L46.8939 5.86156H33.7168V7.4935H46.8939L44.6304 9.30414Z" fill="white"/>
<path d="M38.3064 15.8315L36.0429 14.0208H49.22V12.3889H36.0429L38.3064 10.5783L37.2864 9.30371L32.4102 13.2049L37.2864 17.106L38.3064 15.8315Z" fill="white"/>
<path d="M50.852 31.9723C50.852 24.3234 44.6294 18.1008 36.9805 18.1008C34.6403 18.1008 32.4127 18.6899 30.4527 19.7385V4.22928C30.4527 1.97964 28.6225 0.149414 26.3728 0.149414H8.42144C6.17181 0.149414 4.34158 1.97964 4.34158 4.22928V40.948V41.0158C2.02911 41.4058 0.261719 43.4221 0.261719 45.8439C0.261719 48.5439 2.4575 50.7397 5.15755 50.7397H34.5326C37.7842 50.7397 40.481 48.3473 40.9722 45.2311C46.8146 43.4767 50.852 38.1117 50.852 31.9723ZM35.3151 37.6841C35.178 35.8898 34.5872 34.2236 33.6652 32.7883H42.6784C42.6229 34.5214 42.3895 36.1844 42.0077 37.6841H35.3151ZM41.5099 39.3161C41.2145 40.1361 40.8702 40.8827 40.4802 41.5363C40.0942 40.6828 39.532 39.9272 38.8376 39.3161H41.5099ZM25.5569 22.9966H9.23741V18.1008H25.5569V22.9966ZM41.5059 24.6286H32.4445C33.5028 21.6617 35.1666 19.7327 36.9805 19.7327C38.8017 19.7327 40.4516 21.6805 41.5059 24.6286ZM30.713 24.6286H27.2076C28.6323 22.7298 30.5808 21.279 32.8174 20.4679C31.968 21.5499 31.2499 22.9591 30.713 24.6286ZM26.1737 26.2605H30.2691C30.0569 27.1801 29.8889 28.1519 29.782 29.1776C28.4748 28.4677 27.0044 28.0287 25.441 27.9259C25.6434 27.3466 25.893 26.7934 26.1737 26.2605ZM31.95 26.2605H42.006C42.383 27.7464 42.6148 29.4085 42.6719 31.1564H32.3735C32.0479 30.8185 31.7044 30.4979 31.3372 30.2049C31.4359 28.8006 31.6448 27.4698 31.95 26.2605ZM49.1784 31.1564H44.303C44.2516 29.411 44.0403 27.7619 43.6894 26.2605H47.797C48.5811 27.7391 49.0618 29.3979 49.1784 31.1564ZM44.3103 32.7883H49.1858C49.0691 34.5353 48.586 36.1966 47.7986 37.6841H43.678C44.0378 36.1566 44.2573 34.5002 44.3103 32.7883ZM46.7493 24.6286H43.2341C42.6972 22.9779 41.9873 21.5589 41.1403 20.4761C43.3916 21.2937 45.3319 22.7486 46.7493 24.6286ZM27.1888 22.1701V18.1008C27.1888 17.2008 26.4569 16.4689 25.5569 16.4689H9.23741C8.3374 16.4689 7.60547 17.2008 7.60547 18.1008V22.9966C7.60547 23.8967 8.3374 24.6286 9.23741 24.6286H25.2337C24.9082 25.1508 24.6095 25.6918 24.3525 26.2605H5.97352V14.8369H28.8207V20.7715C28.2414 21.1942 27.6963 21.6617 27.1888 22.1701ZM8.42144 1.78136H26.3728C27.7224 1.78136 28.8207 2.87966 28.8207 4.22928V13.205H5.97352V4.22928C5.97352 2.87966 7.07182 1.78136 8.42144 1.78136ZM5.97352 27.8925H23.7478C23.7421 27.9104 23.7372 27.9292 23.7315 27.9471C22.0727 28.1079 20.497 28.6579 19.1172 29.5244H9.23741C8.3374 29.5244 7.60547 30.2563 7.60547 31.1564V34.4358C6.98696 34.9017 6.43781 35.4525 5.97352 36.0726V27.8925ZM17.105 31.1564C16.4767 31.8091 15.9251 32.5443 15.4755 33.3521C14.5265 32.9776 13.5302 32.7883 12.5013 32.7883C11.341 32.7883 10.2378 33.0355 9.23741 33.4745V31.1564H17.105ZM34.5326 49.1077H5.15755C3.35752 49.1077 1.89366 47.6439 1.89366 45.8439C1.89366 44.0699 3.31672 42.6257 5.08003 42.584L5.20569 42.5849L5.59491 42.5824L6.11795 42.5849L6.01677 41.6783C5.99066 41.4384 5.97352 41.1953 5.97352 40.948C5.97352 37.3488 8.90205 34.4202 12.5013 34.4202C13.5417 34.4202 14.5429 34.6634 15.4763 35.1432L16.2344 35.5324L16.591 34.7581C18.0532 31.579 21.2526 29.5244 24.7409 29.5244C29.6898 29.5244 33.7166 33.5512 33.7166 38.5001V39.3161H34.5326C37.2326 39.3161 39.4284 41.5119 39.4284 44.2119C39.4284 46.912 37.2326 49.1077 34.5326 49.1077ZM41.1354 43.4677C41.9856 42.3768 42.6923 40.9521 43.2235 39.3161H46.7599C45.3548 41.1822 43.4201 42.6452 41.1354 43.4677Z" fill="white"/>
<path d="M23.3117 32.9682L22.9053 31.3877C22.3064 31.5419 21.727 31.7728 21.1836 32.0739L21.9743 33.5011C22.3969 33.2677 22.8474 33.0882 23.3117 32.9682Z" fill="white"/>
<path d="M24.7412 31.1562V32.7882C27.89 32.7882 30.453 35.3503 30.453 38.5C30.453 38.7432 30.4375 38.9822 30.409 39.2172L32.0278 39.4147C32.0662 39.1095 32.085 38.8019 32.085 38.5C32.085 34.4511 28.7909 31.1562 24.7412 31.1562Z" fill="white"/>
<path d="M7.60547 40.9476C7.60547 41.6281 7.74255 42.2874 8.01345 42.9059L9.50832 42.2523C9.3288 41.8411 9.23741 41.4021 9.23741 40.9476C9.23741 39.1476 10.7013 37.6837 12.5013 37.6837V36.0518C9.80125 36.0518 7.60547 38.2475 7.60547 40.9476Z" fill="white"/>
<path d="M15.7653 40.9482C14.4157 40.9482 13.3174 42.0465 13.3174 43.3962C13.3174 44.7458 14.4157 45.8441 15.7653 45.8441C17.1149 45.8441 18.2132 44.7458 18.2132 43.3962C18.2132 42.0465 17.1149 40.9482 15.7653 40.9482ZM15.7653 44.2121C15.3149 44.2121 14.9493 43.8458 14.9493 43.3962C14.9493 42.9466 15.3149 42.5802 15.7653 42.5802C16.2157 42.5802 16.5813 42.9466 16.5813 43.3962C16.5813 43.8458 16.2157 44.2121 15.7653 44.2121Z" fill="white"/>
<path d="M22.2926 40.9482C20.943 40.9482 19.8447 42.0465 19.8447 43.3962C19.8447 44.7458 20.943 45.8441 22.2926 45.8441C23.6423 45.8441 24.7406 44.7458 24.7406 43.3962C24.7406 42.0465 23.6423 40.9482 22.2926 40.9482ZM22.2926 44.2121C21.8422 44.2121 21.4767 43.8458 21.4767 43.3962C21.4767 42.9466 21.8422 42.5802 22.2926 42.5802C22.7431 42.5802 23.1086 42.9466 23.1086 43.3962C23.1086 43.8458 22.7431 44.2121 22.2926 44.2121Z" fill="white"/>
<path d="M28.821 40.9482C27.4713 40.9482 26.373 42.0465 26.373 43.3962C26.373 44.7458 27.4713 45.8441 28.821 45.8441C30.1706 45.8441 31.2689 44.7458 31.2689 43.3962C31.2689 42.0465 30.1706 40.9482 28.821 40.9482ZM28.821 44.2121C28.3705 44.2121 28.005 43.8458 28.005 43.3962C28.005 42.9466 28.3705 42.5802 28.821 42.5802C29.2714 42.5802 29.6369 42.9466 29.6369 43.3962C29.6369 43.8458 29.2714 44.2121 28.821 44.2121Z" fill="white"/>
<path d="M9.23741 11.5728H25.5569C26.4569 11.5728 27.1888 10.8409 27.1888 9.94086V5.04503C27.1888 4.14501 26.4569 3.41309 25.5569 3.41309H9.23741C8.3374 3.41309 7.60547 4.14501 7.60547 5.04503V9.94086C7.60547 10.8409 8.3374 11.5728 9.23741 11.5728ZM9.23741 5.04503H25.5569L25.5577 9.94086H9.23741V5.04503Z" fill="white"/>
<path d="M14.1328 6.67676H15.7648V8.3087H14.1328V6.67676Z" fill="white"/>
<path d="M10.8691 6.67676H12.5011V8.3087H10.8691V6.67676Z" fill="white"/>
<path d="M19.0293 19.7324H20.6612V21.3644H19.0293V19.7324Z" fill="white"/>
<path d="M22.293 19.7324H23.9249V21.3644H22.293V19.7324Z" fill="white"/>
</svg>
