<svg width="25" height="25" fill="none" xmlns="http://www.w3.org/2000/svg"><circle cx="12.5" cy="12.5" r="12.5" fill="#00B6F4"/><path d="M12.5 4.1875C8.58125 4.1875 5.375 7.33437 5.375 11.2531V13.3313C5.375 13.3906 5.375 13.3906 5.375 13.45C5.375 13.5094 5.375 13.6281 5.375 13.6875C5.375 15.35 6.68125 16.6562 8.34375 16.6562C8.7 16.6562 8.9375 16.4187 8.9375 16.0625V11.3125C8.9375 10.9563 8.7 10.7188 8.34375 10.7188C7.69062 10.7188 7.0375 10.9563 6.5625 11.3125V11.1937C6.5625 7.9875 9.23438 5.375 12.5 5.375C15.7656 5.375 18.4375 7.9875 18.4375 11.2531V11.3125C17.9625 10.9563 17.3094 10.7188 16.6562 10.7188C16.3 10.7188 16.0625 10.9563 16.0625 11.3125V16.0625C16.0625 16.4187 16.3 16.6562 16.6562 16.6562C17.0719 16.6562 17.4875 16.5375 17.8438 16.4187C17.25 17.6656 16.1812 18.6156 14.875 19.15C14.875 19.0906 14.875 19.0906 14.875 19.0312C14.875 18.675 14.6375 18.4375 14.2812 18.4375H12.5C12.1438 18.4375 11.9062 18.675 11.9062 19.0312V20.2188C11.9062 20.575 12.1438 20.8125 12.5 20.8125C16.4187 20.8125 19.625 17.725 19.625 13.925V13.3313V11.9062V11.2531C19.625 7.33437 16.4187 4.1875 12.5 4.1875Z" fill="white"/></svg>