<svg width="16" height="16" viewBox="0 0 16 16" fill="none" xmlns="http://www.w3.org/2000/svg">
<g opacity="0.5">
<path fill-rule="evenodd" clip-rule="evenodd" d="M2 1C2 0.447715 2.44772 0 3 0H13C13.5523 0 14 0.447715 14 1V3.44963L14.9586 2.67448C15.2038 2.47623 15.6245 2.40645 15.8413 2.67448C16.0165 2.8912 16.0864 3.18991 15.8413 3.38816L14.4699 4.50002H16L16 4.50004H14.4698L8.48607 9.35134C8.2409 9.54958 7.82901 9.54958 7.58384 9.35134L4.2691 6.67108L2.38617 5.1327L1.60374 4.50004H0V4.50002H1.60371L0.20903 3.3723C-0.0361437 3.17405 -0.0361437 2.85686 0.20903 2.65862C0.331616 2.55949 0.478719 2.50002 0.640534 2.50002C0.802348 2.50002 0.969065 2.55949 1.09165 2.65862L2 3.3931V1ZM5.22402 6L6.46074 7H9.60917L10.8459 6H5.22402ZM12 4.50004C12 4.77616 11.7761 5 11.5 5H4.5C4.22387 5 4.00002 4.77616 4 4.50004H12ZM12 4.50002H4C4 4.50001 4 4.50001 4 4.5C4 4.22386 4.22386 4 4.5 4H11.5C11.7761 4 12 4.22386 12 4.5C12 4.50001 12 4.50001 12 4.50002ZM0 4.50004L8 11L16 4.50004L16 14C16 15.1046 15.1046 16 14 16H2C0.895431 16 0 15.1046 0 14V4.50004ZM4 2.5C4 2.22386 4.22386 2 4.5 2H11.5C11.7761 2 12 2.22386 12 2.5C12 2.77614 11.7761 3 11.5 3H4.5C4.22386 3 4 2.77614 4 2.5Z" fill="white"/>
</g>
</svg>
