<svg width="17" height="17" fill="none" xmlns="http://www.w3.org/2000/svg"><path d="M7.99472 8.14655C6.0419 8.14655 4.45312 6.5579 4.45312 4.60508C4.45312 2.65225 6.0419 1.06348 7.99472 1.06348C9.94755 1.06348 11.5363 2.65225 11.5363 4.60508C11.5363 6.5579 9.94755 8.14655 7.99472 8.14655ZM7.99472 2.12594C6.62773 2.12594 5.51559 3.23795 5.51559 4.60508C5.51559 5.97207 6.62773 7.08408 7.99472 7.08408C9.36171 7.08408 10.4739 5.97207 10.4739 4.60508C10.4739 3.23795 9.36171 2.12594 7.99472 2.12594Z" fill="#4ACBF7"/><path d="M13.8375 15.9378H2.15037C1.85713 15.9378 1.61914 15.6998 1.61914 15.4065V12.9274C1.61914 11.0724 3.12854 9.56299 4.98358 9.56299H11.0043C12.8593 9.56299 14.3687 11.0724 14.3687 12.9274V15.4065C14.3687 15.6998 14.1307 15.9378 13.8375 15.9378ZM2.68161 14.8753H13.3063V12.9274C13.3063 11.6582 12.2735 10.6255 11.0043 10.6255H4.98358C3.71437 10.6255 2.68161 11.6582 2.68161 12.9274V14.8753Z" fill="#4ACBF7"/></svg>