<svg width="31" height="28" viewBox="0 0 31 28" fill="none" xmlns="http://www.w3.org/2000/svg">
<path d="M27.0482 18.0235C29.2272 18.0235 31 16.2622 31 14.0973C31 11.932 29.2272 10.1706 27.0482 10.1706C25.7671 10.1706 24.627 10.7798 23.9042 11.7215L13.1546 7.07767C12.6785 6.87203 12.1251 7.08885 11.9181 7.5614C11.7111 8.03443 11.9294 8.58428 12.4055 8.78944L23.1536 13.4327C23.1164 13.6491 23.0959 13.8703 23.0959 14.0968C23.0959 14.3234 23.1164 14.5451 23.1536 14.7614L7.09577 21.6979C6.37303 20.7562 5.23338 20.1471 3.95231 20.1471C1.77284 20.1471 0 21.9084 0 24.0738C0 26.2386 1.77284 28 3.95231 28C6.1313 28 7.90414 26.2386 7.90414 24.0738C7.90414 23.8472 7.88359 23.6251 7.8464 23.4092L23.9042 16.4727C24.627 17.4144 25.7671 18.0235 27.0482 18.0235ZM3.95231 26.1332C2.80924 26.1332 1.87903 25.2094 1.87903 24.0738C1.87903 22.9381 2.80924 22.0139 3.95231 22.0139C5.09539 22.0139 6.02511 22.9381 6.02511 24.0738C6.02511 25.2094 5.09539 26.1332 3.95231 26.1332ZM27.0482 12.0375C28.1912 12.0375 29.121 12.9612 29.121 14.0968C29.121 15.2325 28.1912 16.1567 27.0482 16.1567C25.9051 16.1567 24.9749 15.2325 24.9749 14.0968C24.9749 12.9612 25.9051 12.0375 27.0482 12.0375Z" fill="white"/>
<path d="M3.98928 0C1.78942 0 0 1.79445 0 4C0 6.20604 1.78942 8 3.98928 8C5.28233 8 6.43264 7.37989 7.16214 6.42051L8.67349 7.07925C8.79647 7.13274 8.9244 7.15849 9.05084 7.15849C9.41682 7.15849 9.76552 6.94453 9.9211 6.58643C10.13 6.10451 9.90974 5.54433 9.42917 5.33531L7.91979 4.67707C7.95733 4.45666 7.97807 4.23081 7.97807 4C7.97807 1.79445 6.18865 0 3.98928 0ZM3.98928 6.09856C2.83552 6.09856 1.8966 5.15701 1.8966 4C1.8966 2.84299 2.83552 1.90193 3.98928 1.90193C5.14305 1.90193 6.08147 2.84299 6.08147 4C6.08147 5.15701 5.14305 6.09856 3.98928 6.09856Z" fill="white"/>
</svg>
