<svg width="37" height="50" fill="none" xmlns="http://www.w3.org/2000/svg"><path d="M14.7894 25.4357C15.1053 25.1905 15.1584 24.7407 14.9086 24.4307C9.69597 17.9651 8.60142 13.7751 8.60142 11.3982C8.60142 6.31127 12.8179 2.17302 18.0009 2.17302C23.1835 2.17302 27.4 6.31127 27.4 11.3982C27.4 17.6868 20.0351 25.8243 18.0001 27.9523C17.7397 27.681 17.3934 27.3129 16.9884 26.865C16.7211 26.5695 16.2606 26.5427 15.9595 26.805C15.6584 27.0673 15.6307 27.5193 15.898 27.8148C16.8372 28.8537 17.4591 29.4655 17.4853 29.4908C17.622 29.625 17.8073 29.7006 18.0009 29.7006C18.1941 29.7006 18.3794 29.625 18.5161 29.4908C18.9386 29.0765 28.8578 19.2507 28.8578 11.3982C28.8578 5.52245 23.9876 0.742188 18.0009 0.742188C12.0141 0.742188 7.14355 5.52245 7.14355 11.3982C7.14355 16.1155 10.7446 21.572 13.7655 25.3187C14.0153 25.6283 14.4735 25.6809 14.7894 25.4357Z" fill="white"/><path d="M34.9457 31.0285H33.8099C33.1035 27.6275 31.1913 24.5642 28.3782 22.3519C28.0657 22.106 27.6052 22.1512 27.3502 22.4528C27.0948 22.7541 27.1416 23.1982 27.4545 23.4441C29.9273 25.3888 31.6321 28.0584 32.3164 31.0285H31.8212C30.9877 31.0285 30.3094 31.6825 30.3094 32.4862V33.2881H21.617V32.4862C21.617 31.6825 20.9391 31.0285 20.1052 31.0285H16.9812C16.1476 31.0285 15.4694 31.6825 15.4694 32.4862V33.2881H6.77694V32.4862C6.77694 31.6825 6.09869 31.0285 5.26515 31.0285H4.77035C5.45469 28.0584 7.15907 25.3888 9.63229 23.4441C9.94478 23.1982 9.99159 22.7541 9.73658 22.4525C9.48157 22.1512 9.02103 22.106 8.70855 22.3519C5.89544 24.5642 3.98324 27.6275 3.27683 31.0289H2.1407C1.30716 31.0289 0.628906 31.6825 0.628906 32.4866V35.4989C0.628906 36.3027 1.30716 36.9567 2.1407 36.9567H3.27645C3.95432 40.2152 5.75233 43.185 8.38465 45.3719C11.2065 47.716 14.814 49.0067 18.5432 49.0067C22.2721 49.0067 25.8799 47.716 28.7014 45.3719C31.3341 43.185 33.1317 40.2152 33.8099 36.9567H34.9457C35.7792 36.9567 36.4575 36.3027 36.4575 35.4989V32.4862C36.4575 31.6825 35.7792 31.0285 34.9457 31.0285V31.0285ZM16.9309 32.4862C16.9309 32.4598 16.9534 32.4378 16.9812 32.4378H20.1052C20.133 32.4378 20.1555 32.4594 20.1555 32.4862V35.4989C20.1555 35.5257 20.133 35.5474 20.1052 35.5474H16.9812C16.9534 35.5474 16.9309 35.5257 16.9309 35.4989V32.4862ZM2.09046 35.4989V32.4862C2.09046 32.4598 2.11291 32.4378 2.1407 32.4378H5.26477C5.29255 32.4378 5.31539 32.4598 5.31539 32.4862V35.4989C5.31539 35.5257 5.29255 35.5474 5.26477 35.5474H2.1407C2.11291 35.5474 2.09046 35.5257 2.09046 35.4989ZM27.7475 44.3043C25.191 46.4278 21.9223 47.5974 18.5432 47.5974C15.1641 47.5974 11.8954 46.4278 9.33884 44.3043C7.02776 42.3846 5.42653 39.7994 4.77035 36.9567H5.26515C6.09869 36.9567 6.77694 36.3027 6.77694 35.4989V34.697H15.4694V35.4989C15.4694 36.3027 16.1472 36.9567 16.9812 36.9567H20.1052C20.9388 36.9567 21.617 36.3027 21.617 35.4989V34.697H30.3094V35.4989C30.3094 36.3027 30.9877 36.9567 31.8212 36.9567H32.316C31.6599 39.7994 30.0586 42.3846 27.7475 44.3043V44.3043ZM34.9959 35.4989C34.9959 35.5257 34.9735 35.5474 34.9457 35.5474H31.8212C31.7935 35.5474 31.771 35.5257 31.771 35.4989V32.4862C31.771 32.4598 31.7935 32.4378 31.8212 32.4378H34.9457C34.9735 32.4378 34.9959 32.4598 34.9959 32.4862V35.4989Z" fill="white"/><path d="M17.3074 17.1641V14.7457H18.5432C20.04 14.7457 21.2577 13.5291 21.2577 12.0342C21.2577 10.5388 20.04 9.32227 18.5432 9.32227H16.5683C16.1602 9.32227 15.8291 9.65303 15.8291 10.0607V17.1641C15.8291 17.5722 16.1602 17.9025 16.5683 17.9025C16.9763 17.9025 17.3074 17.5722 17.3074 17.1641ZM17.3074 10.7992H18.5432C19.225 10.7992 19.7794 11.353 19.7794 12.0342C19.7794 12.7149 19.225 13.2688 18.5432 13.2688H17.3074V10.7992Z" fill="white"/></svg>