<svg width="26" height="35" viewBox="0 0 26 35" fill="none" xmlns="http://www.w3.org/2000/svg">
<path d="M13.2254 0.316925C6.18126 0.316925 0.450684 6.0475 0.450684 13.0916C0.450684 15.4106 1.49069 17.9047 1.53428 18.0099C1.87018 18.8072 2.53296 20.0456 3.01088 20.7715L11.7698 34.0429C12.1283 34.5869 12.6588 34.8988 13.2254 34.8988C13.792 34.8988 14.3225 34.5869 14.6809 34.0436L23.4406 20.7715C23.9193 20.0456 24.5813 18.8072 24.9172 18.0099C24.9608 17.9054 26.0001 15.4113 26.0001 13.0916C26.0001 6.0475 20.2695 0.316925 13.2254 0.316925ZM23.5315 17.4267C23.2317 18.1414 22.6148 19.2933 22.1857 19.9441L13.426 33.2163C13.2532 33.4785 13.1983 33.4785 13.0255 33.2163L4.26581 19.9441C3.83673 19.2933 3.21979 18.1406 2.91996 17.426C2.90718 17.3952 1.95359 15.0995 1.95359 13.0916C1.95359 6.87635 7.01011 1.81983 13.2254 1.81983C19.4406 1.81983 24.4972 6.87635 24.4972 13.0916C24.4972 15.1025 23.5413 17.4042 23.5315 17.4267Z" fill="white"/>
<path d="M13.2251 6.3295C9.49565 6.3295 6.46204 9.36386 6.46204 13.0926C6.46204 16.8213 9.49565 19.8556 13.2251 19.8556C16.9546 19.8556 19.9882 16.8213 19.9882 13.0926C19.9882 9.36386 16.9546 6.3295 13.2251 6.3295ZM13.2251 18.3527C10.3252 18.3527 7.96494 15.9932 7.96494 13.0926C7.96494 10.192 10.3252 7.8324 13.2251 7.8324C16.125 7.8324 18.4853 10.192 18.4853 13.0926C18.4853 15.9932 16.125 18.3527 13.2251 18.3527Z" fill="white"/>
</svg>
