<svg width="16" height="16" fill="none" xmlns="http://www.w3.org/2000/svg"><g opacity="0.5"><path fill-rule="evenodd" clip-rule="evenodd" d="M3 2C3 0.89543 3.89543 0 5 0H14C15.1046 0 16 0.895431 16 2V11C16 12.1046 15.1046 13 14 13H3V2ZM5 3.75C5 3.33579 5.33579 3 5.75 3H13.25C13.6642 3 14 3.33579 14 3.75C14 4.16421 13.6642 4.5 13.25 4.5H5.75C5.33579 4.5 5 4.16421 5 3.75ZM5 6.75C5 6.33579 5.33579 6 5.75 6H13.25C13.6642 6 14 6.33579 14 6.75C14 7.16421 13.6642 7.5 13.25 7.5H5.75C5.33579 7.5 5 7.16421 5 6.75ZM5.75 9C5.33579 9 5 9.33579 5 9.75C5 10.1642 5.33579 10.5 5.75 10.5H13.25C13.6642 10.5 14 10.1642 14 9.75C14 9.33579 13.6642 9 13.25 9H5.75ZM0.75 16C0.56231 16 0.390722 15.9311 0.259181 15.8171C0.235048 15.7962 0.212263 15.7738 0.190973 15.75C0.0722134 15.6173 0 15.4421 0 15.25V4.75C0 4.33579 0.335786 4 0.749999 4C1.16421 4 1.5 4.33579 1.5 4.75L1.5 14.5L11.25 14.5C11.6642 14.5 12 14.8358 12 15.25C12 15.6642 11.6642 16 11.25 16L0.75 16Z" fill="white"/></g></svg>