<svg width="16" height="12" fill="none" xmlns="http://www.w3.org/2000/svg"><path fill-rule="evenodd" clip-rule="evenodd" d="M7.99992 0.900391C12.3496 0.900391 15.7554 5.49256 15.8983 5.68809C16.0339 5.8734 16.0339 6.12518 15.8983 6.31065C15.7554 6.506 12.3496 11.0982 7.99992 11.0982C3.65019 11.0982 0.244313 6.50603 0.101531 6.3105C-0.0338438 6.12499 -0.0338438 5.8734 0.101531 5.6879C0.244313 5.49256 3.65019 0.900391 7.99992 0.900391ZM1.19938 5.99893C2.02085 6.99534 4.79588 10.0433 7.99992 10.0433C11.2108 10.0433 13.9801 6.9969 14.8005 5.99965C13.9787 5.00271 11.2038 1.95533 7.99992 1.95533C4.78901 1.95533 2.01979 5.00165 1.19938 5.99893ZM4.83508 5.99941C4.83508 4.25435 6.25487 2.83456 7.99993 2.83456C9.745 2.83456 11.1648 4.25435 11.1648 5.99941C11.1648 7.74448 9.745 9.16426 7.99993 9.16426C6.25487 9.16426 4.83508 7.74448 4.83508 5.99941ZM5.89005 5.99941C5.89005 7.16282 6.83649 8.10929 7.99993 8.10929C9.16337 8.10929 10.1098 7.16282 10.1098 5.99941C10.1098 4.836 9.16334 3.88953 7.99993 3.88953C6.83652 3.88953 5.89005 4.836 5.89005 5.99941Z" fill="#00B6F4"/></svg>