<svg width="16" height="16" viewBox="0 0 16 16" fill="none" xmlns="http://www.w3.org/2000/svg">
<path d="M12.3837 0C12.038 0 11.7561 0.29987 11.7561 0.667536V3.85919L8.44131 0.333768C8.19614 0.0730117 7.78425 0.0730117 7.53907 0.333768L0.18388 8.17731C-0.0612933 8.43807 -0.0612933 8.85528 0.18388 9.11604C0.429053 9.37679 0.82133 9.37679 1.0665 9.11604L7.99019 1.75228L14.9335 9.1369C15.0561 9.26728 15.2228 9.3455 15.3846 9.3455C15.5464 9.3455 15.6935 9.26728 15.8161 9.1369C16.0613 8.87614 16.0613 8.45893 15.8161 8.19817L13.639 5.88266V0.667536C13.639 0.29987 13.357 0 13.0113 0H12.3837ZM7.99019 2.98305L1.08612 10.3259V13.9974C1.08612 15.103 1.92951 16 2.96905 16H13.0113C14.0509 16 14.8943 15.103 14.8943 13.9974V10.3259L7.99019 2.98305ZM6.73491 9.32464H9.24548C9.59117 9.32464 9.87312 9.62451 9.87312 9.99218V13.9974C9.87312 14.3651 9.59117 14.6649 9.24548 14.6649H6.73491C6.38921 14.6649 6.10726 14.3651 6.10726 13.9974V9.99218C6.10726 9.62451 6.38921 9.32464 6.73491 9.32464Z" fill="white"/>
</svg>
