<svg width="149" height="35" fill="none" xmlns="http://www.w3.org/2000/svg"><path d="M0 26.9306V8.16667H2.89883V16.0417H3.96174L6.66732 8.16667H9.7594L6.66732 17.3056L10.0493 26.9306H6.9572L4.05837 18.8611H2.89883V26.9306H0ZM15.3638 7.875C16.3301 7.875 17.0065 7.97222 17.5863 8.26389C18.166 8.55556 18.6492 8.94444 18.939 9.43056C19.2289 9.91667 19.5188 10.5 19.6154 11.0833C19.7121 11.6667 19.8087 12.4444 19.8087 13.125V21.875C19.8087 22.5556 19.7121 23.2361 19.6154 23.9167C19.5188 24.5972 19.2289 25.0833 18.939 25.5694C18.6492 26.0556 18.166 26.4444 17.5863 26.7361C17.0065 27.0278 16.2335 27.125 15.3638 27.125C14.4942 27.125 13.7211 27.0278 13.1414 26.7361C12.5616 26.4444 12.0785 26.0556 11.7886 25.5694C11.4987 25.0833 11.2088 24.5 11.1122 23.9167C11.0156 23.3333 10.9189 22.5556 10.9189 21.875V13.125C10.9189 12.4444 11.0156 11.7639 11.1122 11.0833C11.2088 10.4028 11.4987 9.91667 11.7886 9.43056C12.0785 8.94444 12.5616 8.55556 13.1414 8.26389C13.7211 7.97222 14.4942 7.875 15.3638 7.875ZM15.3638 24.3056C15.4604 24.3056 15.4604 24.3056 15.3638 24.3056C15.4604 24.3056 15.4604 24.3056 15.3638 24.3056C15.7503 24.3056 16.0402 24.2083 16.2335 24.1111C16.4267 24.0139 16.62 23.8194 16.7166 23.5278C16.8132 23.2361 16.9099 23.0417 16.9099 22.75C16.9099 22.4583 17.0065 22.1667 17.0065 21.875V12.3472C17.0065 12.0556 16.9099 11.7639 16.8132 11.5694C16.7166 11.375 16.5233 11.1806 16.3301 10.9861C16.1368 10.7917 15.7503 10.6944 15.4604 10.6944H15.3638C14.9773 10.6944 14.784 10.7917 14.4942 10.8889C14.2043 10.9861 14.1077 11.1806 14.011 11.4722C13.9144 11.7639 13.8178 11.9583 13.8178 12.25C13.8178 12.5417 13.7211 12.8333 13.7211 13.125V22.6528C13.7211 22.9444 13.8178 23.2361 13.9144 23.4306C14.011 23.625 14.2043 23.8194 14.3975 24.0139C14.5908 24.2083 15.0739 24.3056 15.3638 24.3056ZM24.93 12.9306L25.1232 26.9306H22.4176V8.16667H26.1861L28.6018 19.5417L31.1141 8.16667H34.786V26.9306H32.0804L32.2737 13.125L29.858 24.5972H27.3457L24.93 12.9306ZM46.478 15.75C46.478 16.625 46.3813 17.4028 46.1881 17.9861C45.9948 18.5694 45.7049 19.0556 45.3184 19.4444C44.9319 19.8333 44.4488 20.0278 43.869 20.2222C43.2892 20.4167 42.6128 20.4167 41.9365 20.4167H40.5837V26.9306H37.6848V8.16667H41.9365C42.6128 8.16667 43.2892 8.26389 43.7724 8.36111C44.2555 8.45833 44.8353 8.75 45.2218 9.13889C45.6083 9.52778 45.8982 10.0139 46.1881 10.5972C46.478 11.1806 46.478 11.8611 46.478 12.7361V15.75ZM43.5791 12.7361C43.5791 12.1528 43.4825 11.7639 43.1926 11.4722C42.9027 11.1806 42.5162 10.9861 41.9365 10.9861H40.5837V17.5972H41.8398C42.5162 17.5972 42.9027 17.5 43.1926 17.2083C43.4825 16.9167 43.5791 16.4306 43.5791 15.75V12.7361ZM48.797 26.9306V8.16667H51.6959V24.1111H56.4306V26.9306H48.797ZM57.9767 26.9306V8.16667H65.9001V10.9861H60.8755V15.9444H65.0305V18.7639H60.8755V24.1111H65.9001V26.9306H57.9767ZM74.5 26.9306L72.1809 20.2222L69.9585 26.9306H66.7698L70.2484 17.2083L67.0597 8.16667H70.2484L72.2776 14.1944L74.3067 8.16667H77.4955L74.2101 17.2083L77.7853 26.9306H74.5Z" fill="#020203"/><path d="M87.4482 0V35H148.807V0H87.4482ZM108.03 26.9306H105.131V18.8611H101.653V26.9306H98.7537V8.16667H101.653V16.0417H105.131V8.16667H108.03V26.9306ZM119.529 21.875C119.529 22.5556 119.432 23.2361 119.335 23.9167C119.239 24.5972 118.949 25.0833 118.659 25.5694C118.369 26.0556 117.886 26.4444 117.306 26.7361C116.726 27.0278 115.953 27.125 115.084 27.125C114.214 27.125 113.441 27.0278 112.861 26.7361C112.282 26.4444 111.798 26.0556 111.509 25.5694C111.219 25.0833 110.929 24.5 110.832 23.9167C110.736 23.3333 110.639 22.5556 110.639 21.875V13.125C110.639 12.4444 110.736 11.7639 110.832 11.0833C110.929 10.4028 111.219 9.91667 111.509 9.43056C111.798 8.94444 112.282 8.55556 112.861 8.26389C113.441 7.97222 114.214 7.875 115.084 7.875C115.953 7.875 116.726 7.97222 117.306 8.26389C117.886 8.55556 118.369 8.94444 118.659 9.43056C118.949 9.91667 119.239 10.5 119.335 11.0833C119.432 11.6667 119.529 12.4444 119.529 13.125V21.875ZM130.448 22.3611C130.448 23.1389 130.351 23.8194 130.158 24.4028C129.964 24.9861 129.675 25.4722 129.385 25.8611C129.095 26.25 128.515 26.5417 127.935 26.8333C127.355 27.125 126.679 27.125 125.906 27.125C125.036 27.125 124.263 27.0278 123.684 26.8333C123.104 26.6389 122.621 26.25 122.331 25.8611C122.041 25.4722 121.751 24.8889 121.558 24.3056C121.365 23.7222 121.365 23.0417 121.365 22.2639V21H124.263V22.2639C124.263 22.6528 124.263 22.9444 124.36 23.1389C124.457 23.3333 124.457 23.625 124.65 23.8194C124.843 24.0139 124.94 24.1111 125.133 24.2083C125.326 24.3056 125.616 24.3056 125.906 24.3056C126.196 24.3056 126.486 24.2083 126.679 24.1111C126.872 24.0139 127.066 23.9167 127.162 23.7222L127.452 23.1389C127.549 22.9444 127.549 22.6528 127.549 22.3611V22.1667C127.549 21.7778 127.549 21.4861 127.452 21.1944C127.355 20.9028 127.355 20.6111 127.259 20.4167C127.162 20.2222 127.066 19.9306 126.872 19.7361C126.679 19.5417 126.486 19.3472 126.196 19.1528L124.457 17.9861C123.877 17.5972 123.394 17.2083 123.007 16.8194C122.621 16.4306 122.331 16.0417 122.138 15.6528C121.944 15.2639 121.848 14.7778 121.751 14.2917C121.654 13.8056 121.654 13.3194 121.654 12.6389V12.3472C121.654 10.6944 122.041 9.52778 122.814 8.84722C123.587 8.16667 124.65 7.77778 126.099 7.77778C127.645 7.77778 128.708 8.16667 129.385 8.94444C130.061 9.72222 130.448 10.8889 130.448 12.4444V13.9028H127.549V12.25C127.549 11.9583 127.549 11.7639 127.452 11.5694C127.355 11.375 127.356 11.1806 127.162 10.9861C126.969 10.7917 126.872 10.6944 126.679 10.5972C126.486 10.5 126.293 10.5 126.003 10.5C125.713 10.5 125.52 10.5 125.326 10.5972C125.133 10.6944 124.94 10.7917 124.843 10.9861L124.553 11.5694C124.457 11.7639 124.457 12.0556 124.457 12.3472V12.7361C124.457 13.2222 124.553 13.7083 124.843 14.0972C125.133 14.4861 125.423 14.875 125.809 15.1667L127.355 16.1389C127.935 16.5278 128.418 16.8194 128.805 17.2083C129.191 17.5972 129.481 17.9861 129.771 18.4722C130.061 18.9583 130.158 19.3472 130.254 19.8333C130.351 20.3194 130.448 20.9028 130.448 21.4861V22.3611ZM140.4 10.9861H137.308V26.9306H134.409V10.9861H131.414V8.16667H140.4V10.9861Z" fill="#2CB3E8"/><path d="M116.34 11.4721C116.244 11.2777 116.05 11.0832 115.857 10.8888C115.664 10.6943 115.374 10.6943 114.987 10.6943H114.891C114.504 10.6943 114.311 10.7916 114.021 10.8888C113.731 10.986 113.635 11.1804 113.538 11.4721C113.441 11.7638 113.345 11.9582 113.345 12.2499C113.345 12.5416 113.248 12.8332 113.248 13.1249V22.6527C113.248 22.9443 113.345 23.236 113.441 23.4304C113.538 23.6249 113.731 23.8193 113.924 24.0138C114.118 24.2082 114.408 24.2082 114.794 24.2082C115.181 24.2082 115.374 24.111 115.664 24.0138C115.954 23.9166 116.05 23.7221 116.147 23.4304C116.244 23.1388 116.34 22.9443 116.34 22.6527C116.34 22.361 116.437 22.0693 116.437 21.7777V12.2499C116.437 11.9582 116.437 11.6666 116.34 11.4721Z" fill="#2CB3E8"/></svg>