<svg width="24" height="17" fill="none" xmlns="http://www.w3.org/2000/svg"><path fill-rule="evenodd" clip-rule="evenodd" d="M0 1C0 0.447715 0.447715 0 1 0H23C23.5523 0 24 0.447715 24 1V16C24 16.5523 23.5523 17 23 17H1C0.447716 17 0 16.5523 0 16V1ZM1 1.45C1 1.41343 1.00436 1.37787 1.0126 1.34383L11.3598 9.96652C11.7307 10.2756 12.2693 10.2756 12.6402 9.96652L22.9874 1.34384C22.9956 1.37788 23 1.41343 23 1.45V15.55C23 15.7985 22.7985 16 22.55 16H1.45C1.20147 16 1 15.7985 1 15.55V1.45ZM21.6 1H2.40001L11.7119 8.75993C11.8788 8.899 12.1212 8.899 12.2881 8.75993L21.6 1Z" fill="black"/></svg>