<svg width="18" height="24" fill="none" xmlns="http://www.w3.org/2000/svg"><path fill-rule="evenodd" clip-rule="evenodd" d="M16 10C16 7.18063 14.3332 4.75057 11.9313 3.64144C11.9763 3.43478 12 3.22016 12 3C12 1.34315 10.6569 0 9 0C7.34315 0 6 1.34315 6 3C6 3.22016 6.02372 3.43478 6.06873 3.64144C3.66679 4.75057 2 7.18063 2 10C2 10 2.36109 13.3827 2 15.5C1.71605 17.165 0.759507 19.0998 0.279555 19.9963C0.266906 20.0199 0.256115 20.0441 0.247133 20.0686C0.0992653 20.1554 0 20.3161 0 20.5C0 20.7761 0.223858 21 0.5 21H6C6 22.6569 7.34315 24 9 24C10.6569 24 12 22.6569 12 21H17.5C17.7761 21 18 20.7761 18 20.5C18 20.3296 17.9148 20.1792 17.7847 20.0889C17.7762 20.0609 17.7654 20.0332 17.7523 20.0061C17.3197 19.1139 16.4455 17.171 16.1605 15.5C15.7994 13.3827 16 10 16 10ZM15 10C15 6.68629 12.3137 4 9 4C5.68629 4 3 6.68629 3 10C3 10 3.36109 13.3827 3 15.5C2.74942 16.9693 1.975 18.8615 1.46661 20H5H6.17071H7.26756H10.7324H11.8293H13H16.5781C16.1172 18.8615 15.4111 16.9693 15.1605 15.5C14.7994 13.3827 15 10 15 10ZM7 3V3.28988C7.63371 3.10128 8.30503 3 9 3C9.69497 3 10.3663 3.10128 11 3.28988V3C11 1.89543 10.1046 1 9 1C7.89543 1 7 1.89543 7 3ZM7 21C7 22.1046 7.89543 23 9 23C10.1046 23 11 22.1046 11 21H7Z" fill="black"/></svg>