<svg width="40" height="40" viewBox="0 0 40 40" fill="none" xmlns="http://www.w3.org/2000/svg">
<path fill-rule="evenodd" clip-rule="evenodd" d="M20 40C31.0457 40 40 31.0457 40 20C40 8.9543 31.0457 0 20 0C8.9543 0 0 8.9543 0 20C0 31.0457 8.9543 40 20 40ZM18.856 21.444C18.28 22.284 17.992 23.352 17.992 24.648H22.564C22.564 23.784 22.78 23.04 23.212 22.416C23.668 21.792 24.352 21.072 25.264 20.256C26.008 19.584 26.608 18.996 27.064 18.492C27.52 17.964 27.904 17.328 28.216 16.584C28.552 15.84 28.72 14.976 28.72 13.992C28.72 11.952 27.916 10.356 26.308 9.204C24.724 8.028 22.588 7.44 19.9 7.44C17.692 7.44 15.772 7.824 14.14 8.592C12.508 9.336 11.176 10.416 10.144 11.832L13.636 14.1C14.956 12.252 16.912 11.328 19.504 11.328C20.872 11.328 21.964 11.64 22.78 12.264C23.596 12.888 24.004 13.704 24.004 14.712C24.004 15.432 23.788 16.08 23.356 16.656C22.948 17.208 22.312 17.868 21.448 18.636C20.32 19.644 19.456 20.58 18.856 21.444ZM18.208 32.46C18.76 32.988 19.456 33.252 20.296 33.252C21.112 33.252 21.784 32.988 22.312 32.46C22.864 31.908 23.14 31.236 23.14 30.444C23.14 29.652 22.864 28.992 22.312 28.464C21.784 27.936 21.112 27.672 20.296 27.672C19.456 27.672 18.76 27.936 18.208 28.464C17.68 28.992 17.416 29.652 17.416 30.444C17.416 31.236 17.68 31.908 18.208 32.46Z" fill="#F46B1E"/>
</svg>
