<svg width="51" height="51" fill="none" xmlns="http://www.w3.org/2000/svg"><path d="M31.2676 40.9476H44.3231V6.67676H31.2676V40.9476ZM32.8995 8.3087H42.6912V39.3156H32.8995V8.3087Z" fill="white"/><path d="M48.4031 18.1008H47.5871V5.86122C47.5871 4.5116 46.4888 3.4133 45.1392 3.4133H32.8172C32.4378 1.5537 30.7895 0.149414 28.8198 0.149414H4.3406C2.09097 0.149414 0.260742 1.97964 0.260742 4.22928V43.3959C0.260742 45.422 1.74908 47.0939 3.68701 47.4097L4.5193 50.7397H10.6897L11.5057 47.4758H21.6547L22.4707 50.7397H28.6411L29.4734 47.4097C31.1437 47.138 32.481 45.8602 32.8172 44.2119H45.1392C46.4888 44.2119 47.5871 43.1136 47.5871 41.764V29.5244H48.4031C49.7527 29.5244 50.851 28.4261 50.851 27.0765V20.5487C50.851 19.1991 49.7527 18.1008 48.4031 18.1008ZM9.41513 49.1077H5.79385L5.38586 47.4758H9.82312L9.41513 49.1077ZM23.7452 49.1077L23.3373 47.4758H27.7745L27.3665 49.1077H23.7452ZM28.8198 45.8439H4.3406C2.99099 45.8439 1.89269 44.7456 1.89269 43.3959V4.22928C1.89269 2.87966 2.99099 1.78136 4.3406 1.78136H28.8198C29.8822 1.78136 30.7797 2.46596 31.1175 3.4133H30.4517H5.15658C4.25656 3.4133 3.52463 4.14523 3.52463 5.04525V42.58C3.52463 43.48 4.25656 44.2119 5.15658 44.2119H30.4517H31.1175C30.7797 45.1593 29.8822 45.8439 28.8198 45.8439ZM5.15658 14.8369H28.0038V22.9966H5.15658V14.8369ZM5.15658 24.6286H28.0038V32.7883H5.15658V24.6286ZM5.15658 34.4202H28.0038V41.764C28.0038 42.0512 28.0625 42.3238 28.1539 42.58H5.15658V34.4202ZM28.0038 5.86122V13.205H5.15658V5.04525H28.1539C28.0625 5.30146 28.0038 5.574 28.0038 5.86122ZM45.9552 41.764C45.9552 42.2144 45.5888 42.58 45.1392 42.58H30.4517C30.0021 42.58 29.6357 42.2144 29.6357 41.764V5.86122C29.6357 5.4108 30.0021 5.04525 30.4517 5.04525H45.1392C45.5888 5.04525 45.9552 5.4108 45.9552 5.86122V41.764ZM49.2191 27.0765C49.2191 27.5269 48.8527 27.8925 48.4031 27.8925H47.5871V19.7327H48.4031C48.8527 19.7327 49.2191 20.0983 49.2191 20.5487V27.0765Z" fill="white"/><path d="M6.78809 6.67676H8.42003V8.3087H6.78809V6.67676Z" fill="white"/><path d="M10.0527 6.67676H11.6847V8.3087H10.0527V6.67676Z" fill="white"/><path d="M6.78809 9.94141H8.42003V11.5734H6.78809V9.94141Z" fill="white"/><path d="M10.0527 9.94141H11.6847V11.5734H10.0527V9.94141Z" fill="white"/><path d="M24.7402 6.67676H26.3722V11.5726H24.7402V6.67676Z" fill="white"/><path d="M21.4756 6.67676H23.1075V11.5726H21.4756V6.67676Z" fill="white"/><path d="M6.78809 16.4688H8.42003V18.1007H6.78809V16.4688Z" fill="white"/><path d="M10.0527 16.4688H11.6847V18.1007H10.0527V16.4688Z" fill="white"/><path d="M10.0527 19.7324H11.6847V21.3644H10.0527V19.7324Z" fill="white"/><path d="M6.78809 19.7324H8.42003V21.3644H6.78809V19.7324Z" fill="white"/><path d="M24.7402 16.4688H26.3722V21.3646H24.7402V16.4688Z" fill="white"/><path d="M21.4756 16.4688H23.1075V21.3646H21.4756V16.4688Z" fill="white"/><path d="M6.78809 26.2607H8.42003V27.8927H6.78809V26.2607Z" fill="white"/><path d="M10.0527 26.2607H11.6847V27.8927H10.0527V26.2607Z" fill="white"/><path d="M10.0527 29.5244H11.6847V31.1564H10.0527V29.5244Z" fill="white"/><path d="M6.78809 29.5244H8.42003V31.1564H6.78809V29.5244Z" fill="white"/><path d="M24.7402 26.2607H26.3722V31.1566H24.7402V26.2607Z" fill="white"/><path d="M21.4756 26.2607H23.1075V31.1566H21.4756V26.2607Z" fill="white"/><path d="M6.78809 36.0518H8.42003V37.6837H6.78809V36.0518Z" fill="white"/><path d="M10.0527 36.0518H11.6847V37.6837H10.0527V36.0518Z" fill="white"/><path d="M10.0527 39.3164H11.6847V40.9483H10.0527V39.3164Z" fill="white"/><path d="M6.78809 39.3164H8.42003V40.9483H6.78809V39.3164Z" fill="white"/><path d="M24.7402 36.0518H26.3722V40.9476H24.7402V36.0518Z" fill="white"/><path d="M21.4756 36.0518H23.1075V40.9476H21.4756V36.0518Z" fill="white"/><path d="M39.4277 9.94141H41.0597V11.5734H39.4277V9.94141Z" fill="white"/><path d="M39.4277 13.2051H41.0597V14.837H39.4277V13.2051Z" fill="white"/><path d="M39.4277 16.4688H41.0597V18.1007H39.4277V16.4688Z" fill="white"/></svg>