<svg width="72" height="72" fill="none" xmlns="http://www.w3.org/2000/svg"><rect opacity="0.2" width="72" height="72" rx="9" fill="#0BDC9E"/><path d="M52.2518 11.9999H19.4757C18.662 11.9999 18 12.6619 18 13.4756V20.3182C18 21.132 18.662 21.7939 19.4757 21.7939H52.2518C53.0656 21.7939 53.7275 21.132 53.7275 20.3182V13.4756C53.7275 12.6619 53.0656 11.9999 52.2518 11.9999Z" stroke="#0BDC9E" stroke-width="2" stroke-miterlimit="10" stroke-linecap="round" stroke-linejoin="round"/><path d="M-nan -nanL36.2868 15.4415H19.458C18.6528 15.4415 18 16.0942 18 16.8995V16.8995C18 17.7047 18.6528 18.3574 19.458 18.3574H36.2868C37.0908 18.3574 37.7464 17.7051 37.7464 16.8978C37.7464 16.0938 37.0941 15.4415 36.2868 15.4415L-nan -nanL-nan -nanZ" stroke="#0BDC9E" stroke-width="2" stroke-miterlimit="10" stroke-linecap="round" stroke-linejoin="round"/><path d="M43.3357 15.7426C43.9742 15.7426 44.4918 16.2602 44.4918 16.8986C44.4918 17.5371 43.9742 18.0547 43.3357 18.0547C42.6973 18.0547 42.1797 17.5371 42.1797 16.8986C42.1797 16.2602 42.6973 15.7426 43.3357 15.7426Z" stroke="#0BDC9E" stroke-width="2" stroke-miterlimit="10" stroke-linecap="round" stroke-linejoin="round"/><path d="M48.2431 15.7444C48.8808 15.7742 49.3737 16.3154 49.3439 16.9531C49.3141 17.5909 48.7729 18.0838 48.1352 18.054C47.4975 18.0242 47.0046 17.483 47.0344 16.8452C47.0642 16.2074 47.6054 15.7146 48.2431 15.7444Z" stroke="#0BDC9E" stroke-width="2" stroke-miterlimit="10" stroke-linecap="round" stroke-linejoin="round"/><path d="M52.2518 24.7323H19.4757C18.662 24.7323 18 25.3943 18 26.208V33.0506C18 33.8644 18.662 34.5264 19.4757 34.5264H52.2518C53.0656 34.5264 53.7275 33.8644 53.7275 33.0506V26.208C53.7275 25.3943 53.0656 24.7323 52.2518 24.7323Z" stroke="#0BDC9E" stroke-width="2" stroke-miterlimit="10" stroke-linecap="round" stroke-linejoin="round"/><path d="M-nan -nanL36.2868 28.171H19.458C18.6528 28.171 18 28.8237 18 29.6289V29.6289C18 30.4342 18.6528 31.0869 19.458 31.0869H36.2868C37.0908 31.0869 37.7464 30.4346 37.7464 29.6273C37.7464 28.8233 37.0941 28.171 36.2868 28.171L-nan -nanL-nan -nanZ" stroke="#0BDC9E" stroke-width="2" stroke-miterlimit="10" stroke-linecap="round" stroke-linejoin="round"/><path d="M43.3357 28.475C43.9742 28.475 44.4918 28.9926 44.4918 29.6311C44.4918 30.2695 43.9742 30.7871 43.3357 30.7871C42.6973 30.7871 42.1797 30.2695 42.1797 29.6311C42.1797 28.9926 42.6973 28.475 43.3357 28.475Z" stroke="#0BDC9E" stroke-width="2" stroke-miterlimit="10" stroke-linecap="round" stroke-linejoin="round"/><path d="M48.2432 28.4769C48.8809 28.5067 49.3738 29.0478 49.344 29.6856C49.3142 30.3233 48.773 30.8162 48.1352 30.7864C47.4975 30.7566 47.0046 30.2154 47.0344 29.5777C47.0642 28.9399 47.6054 28.4471 48.2432 28.4769Z" stroke="#0BDC9E" stroke-width="2" stroke-miterlimit="10" stroke-linecap="round" stroke-linejoin="round"/><path d="M52.2518 37.4647H19.4757C18.662 37.4647 18 38.1267 18 38.9405V45.7831C18 46.5968 18.662 47.2588 19.4757 47.2588H52.2518C53.0656 47.2588 53.7275 46.5968 53.7275 45.7831V38.9405C53.7275 38.1235 53.0656 37.4647 52.2518 37.4647Z" stroke="#0BDC9E" stroke-width="2" stroke-miterlimit="10" stroke-linecap="round" stroke-linejoin="round"/><path d="M-nan -nanL36.2868 40.9034H19.458C18.6528 40.9034 18 41.5562 18 42.3614V42.3614C18 43.1666 18.6528 43.8193 19.458 43.8193H36.2868C37.0908 43.8193 37.7464 43.167 37.7464 42.3598C37.7464 41.5557 37.0941 40.9034 36.2868 40.9034L-nan -nanL-nan -nanZ" stroke="#0BDC9E" stroke-width="2" stroke-miterlimit="10" stroke-linecap="round" stroke-linejoin="round"/><path d="M43.3357 41.2045C43.9742 41.2045 44.4918 41.7221 44.4918 42.3606C44.4918 42.999 43.9742 43.5166 43.3357 43.5166C42.6973 43.5166 42.1797 42.999 42.1797 42.3606C42.1797 41.7221 42.6973 41.2045 43.3357 41.2045Z" stroke="#0BDC9E" stroke-width="2" stroke-miterlimit="10" stroke-linecap="round" stroke-linejoin="round"/><path d="M48.2431 41.2054C48.8808 41.2352 49.3737 41.7763 49.3439 42.4141C49.3141 43.0518 48.7729 43.5447 48.1352 43.5149C47.4975 43.4851 47.0046 42.9439 47.0344 42.3062C47.0642 41.6684 47.6054 41.1756 48.2431 41.2054Z" stroke="#0BDC9E" stroke-width="2" stroke-miterlimit="10" stroke-linecap="round" stroke-linejoin="round"/><path d="M-nan -nanL52.2518 50.1942H19.4757C18.662 50.1942 18 50.8562 18 51.6699V58.5126C18 59.3263 18.662 59.9883 19.4757 59.9883H52.2518C53.0656 59.9883 53.7275 59.3263 53.7275 58.5126V51.6699C53.7275 50.8562 53.0656 50.1942 52.2518 50.1942L-nan -nanL-nan -nanZ" stroke="#0BDC9E" stroke-width="2" stroke-miterlimit="10" stroke-linecap="round" stroke-linejoin="round"/><path d="M-nan -nanL36.2868 53.6339H19.458C18.6528 53.6339 18 54.2866 18 55.0918V55.0918C18 55.8971 18.6528 56.5498 19.458 56.5498H36.2868C37.0908 56.5498 37.7464 55.8975 37.7464 55.0902C37.7464 54.2862 37.0941 53.6339 36.2868 53.6339L-nan -nanL-nan -nanZ" stroke="#0BDC9E" stroke-width="2" stroke-miterlimit="10" stroke-linecap="round" stroke-linejoin="round"/><path d="M43.3357 53.9369C43.9742 53.9369 44.4918 54.4545 44.4918 55.093C44.4918 55.7314 43.9742 56.249 43.3357 56.249C42.6973 56.249 42.1797 55.7314 42.1797 55.093C42.1797 54.4545 42.6973 53.9369 43.3357 53.9369Z" stroke="#0BDC9E" stroke-width="2" stroke-miterlimit="10" stroke-linecap="round" stroke-linejoin="round"/><path d="M48.2432 53.9378C48.8809 53.9676 49.3738 54.5087 49.344 55.1465C49.3142 55.7843 48.773 56.2771 48.1352 56.2473C47.4975 56.2175 47.0046 55.6764 47.0344 55.0386C47.0642 54.4008 47.6054 53.908 48.2432 53.9378Z" stroke="#0BDC9E" stroke-width="2" stroke-miterlimit="10" stroke-linecap="round" stroke-linejoin="round"/></svg>