<svg width="36" height="36" fill="none" xmlns="http://www.w3.org/2000/svg"><circle cx="18" cy="18" r="18" fill="#F46B1E"/><path d="M18 19.6125C17.2977 19.6157 16.6023 19.4742 15.9571 19.1967C15.3119 18.9193 14.7308 18.5119 14.25 18H21.75C21.2692 18.5119 20.6881 18.9193 20.0429 19.1967C19.3977 19.4742 18.7023 19.6157 18 19.6125Z" fill="white"/><path d="M27.2875 23.2629V26.8254C27.2875 27.137 27.1637 27.4359 26.9434 27.6562C26.723 27.8766 26.4241 28.0004 26.1125 28.0004H9.8625C9.55087 28.0004 9.25201 27.8766 9.03165 27.6562C8.8113 27.4359 8.6875 27.137 8.6875 26.8254V23.2754C8.68658 22.0898 9.08602 20.9387 9.8211 20.0085C10.5562 19.0783 11.5838 18.4236 12.7375 18.1504C13.3297 18.9887 14.1145 19.6726 15.0259 20.1446C15.9372 20.6167 16.9486 20.8631 17.975 20.8631C19.0014 20.8631 20.0128 20.6167 20.9242 20.1446C21.8355 19.6726 22.6203 18.9887 23.2125 18.1504C24.3687 18.4182 25.4005 19.069 26.1402 19.9971C26.88 20.9252 27.2843 22.0761 27.2875 23.2629Z" fill="white"/><path d="M23.1753 14.425C23.1835 15.4632 22.8784 16.4797 22.2999 17.3418C21.7214 18.204 20.8964 18.8716 19.9326 19.2577C18.9688 19.6437 17.9111 19.7302 16.8974 19.5059C15.8837 19.2815 14.9612 18.7567 14.2503 18C13.3267 17.0402 12.8152 15.757 12.8253 14.425C12.8253 13.0525 13.3706 11.7362 14.3411 10.7657C15.3116 9.79522 16.6278 9.25 18.0003 9.25C19.3728 9.25 20.6891 9.79522 21.6596 10.7657C22.6301 11.7362 23.1753 13.0525 23.1753 14.425Z" fill="white"/></svg>