<svg width="16" height="16" viewBox="0 0 16 16" fill="none" xmlns="http://www.w3.org/2000/svg">
<g opacity="0.5">
<path d="M8 9.29C7.43816 9.29256 6.88182 9.17934 6.36567 8.9574C5.84952 8.73545 5.38463 8.40955 5 8H11C10.6154 8.40955 10.1505 8.73545 9.63433 8.9574C9.11818 9.17934 8.56184 9.29256 8 9.29Z" fill="white"/>
<path d="M15.4298 12.2101V15.0601C15.4298 15.3094 15.3308 15.5485 15.1545 15.7248C14.9782 15.9011 14.7391 16.0001 14.4898 16.0001H1.48981C1.2405 16.0001 1.00141 15.9011 0.825126 15.7248C0.648841 15.5485 0.549806 15.3094 0.549806 15.0601V12.2201C0.549069 11.2717 0.868623 10.3507 1.45669 9.60658C2.04475 8.86243 2.86686 8.33865 3.78981 8.12012C4.26356 8.79076 4.89137 9.33789 5.62048 9.71552C6.3496 10.0932 7.1587 10.2903 7.97981 10.2903C8.80091 10.2903 9.61002 10.0932 10.3391 9.71552C11.0682 9.33789 11.6961 8.79076 12.1698 8.12012C13.0948 8.33436 13.9202 8.85499 14.512 9.59746C15.1038 10.3399 15.4272 11.2607 15.4298 12.2101Z" fill="white"/>
<path d="M12.1405 5.14C12.147 5.97055 11.9029 6.78376 11.4401 7.47346C10.9773 8.16316 10.3173 8.6973 9.54629 9.00614C8.77527 9.31498 7.92904 9.38417 7.11809 9.20468C6.30714 9.02519 5.56915 8.60536 5.00047 8C4.26155 7.23213 3.85238 6.20563 3.86047 5.14C3.86047 4.042 4.29665 2.98898 5.07305 2.21258C5.84945 1.43618 6.90247 1 8.00047 1C9.09847 1 10.1515 1.43618 10.9279 2.21258C11.7043 2.98898 12.1405 4.042 12.1405 5.14Z" fill="white"/>
</g>
</svg>
